<?xml version="1.0" encoding="UTF-8"?><svg id="Layer_1" xmlns="http://www.w3.org/2000/svg" viewBox="0 0 392.03 392.03"><defs><style>.cls-1{fill:#231f20;}</style></defs><g id="_Radial_Repeat_"><g><path class="cls-1" d="m198.74,206.99v180.7c0,1.32,1.18,2.34,2.48,2.13,67.15-10.55,45.93-53.92-2.48-182.83Z"/><path class="cls-1" d="m193.73,387.69v-180.7c-48.41,128.92-69.63,172.28-2.48,182.83,1.3.2,2.48-.82,2.48-2.13Z"/></g></g><g id="_Radial_Repeat_-2"><g><path class="cls-1" d="m190.18,205.7l-127.77,127.77c-.93.93-.82,2.49.25,3.26,54.94,40.02,70.6-5.65,127.53-131.04Z"/><path class="cls-1" d="m58.87,329.93l127.77-127.77c-125.39,56.93-171.05,72.59-131.04,127.53.78,1.06,2.33,1.18,3.26.25Z"/></g></g><g id="_Radial_Repeat_-3"><g><path class="cls-1" d="m185.04,198.74H4.34c-1.32,0-2.34,1.18-2.13,2.48,10.55,67.15,53.92,45.93,182.83-2.48Z"/><path class="cls-1" d="m4.34,193.73h180.7C56.13,145.32,12.76,124.1,2.21,191.25c-.2,1.3.82,2.48,2.13,2.48Z"/></g></g><g id="_Radial_Repeat_-4"><g><path class="cls-1" d="m186.33,190.18L58.55,62.41c-.93-.93-2.49-.82-3.26.25-40.02,54.94,5.65,70.6,131.04,127.53Z"/><path class="cls-1" d="m62.1,58.87l127.77,127.77C132.94,61.25,117.28,15.59,62.34,55.6c-1.06.78-1.18,2.33-.25,3.26Z"/></g></g><g id="_Radial_Repeat_-5"><g><path class="cls-1" d="m193.29,185.04V4.34c0-1.32-1.18-2.34-2.48-2.13-67.15,10.55-45.93,53.92,2.48,182.83Z"/><path class="cls-1" d="m198.3,4.34v180.7C246.71,56.13,267.93,12.76,200.78,2.21c-1.3-.2-2.48.82-2.48,2.13Z"/></g></g><g id="_Radial_Repeat_-6"><g><path class="cls-1" d="m201.85,186.33l127.77-127.77c.93-.93.82-2.49-.25-3.26-54.94-40.02-70.6,5.65-127.53,131.04Z"/><path class="cls-1" d="m333.16,62.1l-127.77,127.77c125.39-56.93,171.05-72.59,131.04-127.53-.78-1.06-2.33-1.18-3.26-.25Z"/></g></g><g id="_Radial_Repeat_-7"><g><path class="cls-1" d="m206.99,193.29h180.7c1.32,0,2.34-1.18,2.13-2.48-10.55-67.15-53.92-45.93-182.83,2.48Z"/><path class="cls-1" d="m387.69,198.3h-180.7c128.92,48.41,172.28,69.63,182.83,2.48.2-1.3-.82-2.48-2.13-2.48Z"/></g></g><g id="_Radial_Repeat_-8"><g><path class="cls-1" d="m205.7,201.85l127.77,127.77c.93.93,2.49.82,3.26-.25,40.02-54.94-5.65-70.6-131.04-127.53Z"/><path class="cls-1" d="m329.93,333.16l-127.77-127.77c56.93,125.39,72.59,171.05,127.53,131.04,1.06-.78,1.18-2.33.25-3.26Z"/></g></g></svg>