<?xml version="1.0" encoding="UTF-8"?><svg id="Layer_1" xmlns="http://www.w3.org/2000/svg" viewBox="0 0 392.03 392.03"><defs><style>.cls-1{fill:#fff;}</style></defs><g id="_Radial_Repeat_"><g><path class="cls-1" d="m197.33,201.31v87.14c0,.64.57,1.13,1.2,1.03,32.38-5.09,22.15-26-1.2-88.16Z"/><path class="cls-1" d="m194.91,288.44v-87.14c-23.34,62.17-33.58,83.08-1.2,88.16.63.1,1.2-.39,1.2-1.03Z"/></g></g><g id="_Radial_Repeat_-2"><g><path class="cls-1" d="m193.2,200.69l-61.61,61.61c-.45.45-.39,1.2.12,1.57,26.49,19.3,34.04-2.72,61.5-63.19Z"/><path class="cls-1" d="m129.88,260.59l61.61-61.61c-60.46,27.45-82.49,35-63.19,61.5.37.51,1.12.57,1.57.12Z"/></g></g><g id="_Radial_Repeat_-3"><g><path class="cls-1" d="m190.72,197.33h-87.14c-.64,0-1.13.57-1.03,1.2,5.09,32.38,26,22.15,88.16-1.2Z"/><path class="cls-1" d="m103.59,194.91h87.14c-62.17-23.34-83.08-33.58-88.16-1.2-.1.63.39,1.2,1.03,1.2Z"/></g></g><g id="_Radial_Repeat_-4"><g><path class="cls-1" d="m191.34,193.2l-61.61-61.61c-.45-.45-1.2-.39-1.57.12-19.3,26.49,2.72,34.04,63.19,61.5Z"/><path class="cls-1" d="m131.44,129.88l61.61,61.61c-27.45-60.46-35-82.49-61.5-63.19-.51.37-.57,1.12-.12,1.57Z"/></g></g><g id="_Radial_Repeat_-5"><g><path class="cls-1" d="m194.7,190.72v-87.14c0-.64-.57-1.13-1.2-1.03-32.38,5.09-22.15,26,1.2,88.16Z"/><path class="cls-1" d="m197.12,103.59v87.14c23.34-62.17,33.58-83.08,1.2-88.16-.63-.1-1.2.39-1.2,1.03Z"/></g></g><g id="_Radial_Repeat_-6"><g><path class="cls-1" d="m198.83,191.34l61.61-61.61c.45-.45.39-1.2-.12-1.57-26.49-19.3-34.04,2.72-61.5,63.19Z"/><path class="cls-1" d="m262.15,131.44l-61.61,61.61c60.46-27.45,82.49-35,63.19-61.5-.37-.51-1.12-.57-1.57-.12Z"/></g></g><g id="_Radial_Repeat_-7"><g><path class="cls-1" d="m201.31,194.7h87.14c.64,0,1.13-.57,1.03-1.2-5.09-32.38-26-22.15-88.16,1.2Z"/><path class="cls-1" d="m288.44,197.12h-87.14c62.17,23.34,83.08,33.58,88.16,1.2.1-.63-.39-1.2-1.03-1.2Z"/></g></g><g id="_Radial_Repeat_-8"><g><path class="cls-1" d="m200.69,198.83l61.61,61.61c.45.45,1.2.39,1.57-.12,19.3-26.49-2.72-34.04-63.19-61.5Z"/><path class="cls-1" d="m260.59,262.15l-61.61-61.61c27.45,60.46,35,82.49,61.5,63.19.51-.37.57-1.12.12-1.57Z"/></g></g></svg>