<?xml version="1.0" encoding="UTF-8"?>
<!-- Generator: visioncortex VTracer 0.6.2 -->
<svg version="1.1" xmlns="http://www.w3.org/2000/svg" xmlns:xlink="http://www.w3.org/1999/xlink" preserveAspectRatio="xMidYMid meet" viewBox="300 250 200 150" width="53.87" height="53.87">
<path d="M0 0 C2.6875 0.5625 2.6875 0.5625 5.6875 1.5625 C6.40421875 1.73007812 7.1209375 1.89765625 7.859375 2.0703125 C25.50378483 6.29427728 41.83887644 15.57835786 52.18359375 30.7578125 C64.82025857 52.88135032 58.46138861 84.10835329 52.1875 107.2421875 C51.69071169 109.01652736 51.19052171 110.78991722 50.6875 112.5625 C50.26791016 114.05378418 50.26791016 114.05378418 49.83984375 115.57519531 C42.86781495 140.16593326 34.80527447 164.37925113 25.6953125 188.2578125 C23.99089106 192.73053146 22.37625719 197.22653528 20.8125 201.75 C16.84719549 213.15887221 12.46588403 224.4164858 8.16064453 235.70019531 C5.7468664 242.02699264 3.34122757 248.35687838 0.9375 254.6875 C0.48181641 255.88753662 0.02613281 257.08757324 -0.44335938 258.32397461 C-4.12955573 268.04718941 -7.74815716 277.79401092 -11.3125 287.5625 C-11.9725 287.5625 -12.6325 287.5625 -13.3125 287.5625 C-14.07316291 284.17705409 -14.43882542 281.05003865 -14.44392776 277.58277702 C-14.44776891 276.59932112 -14.45161005 275.61586521 -14.4555676 274.60260761 C-14.45470112 273.52975265 -14.45383463 272.4568977 -14.45294189 271.35153198 C-14.45591302 270.20598189 -14.45888414 269.06043181 -14.4619453 267.88016808 C-14.46911573 264.70480731 -14.47180383 261.52947954 -14.47254276 258.35411191 C-14.47439637 254.92806472 -14.48194497 251.50202919 -14.48867798 248.07598877 C-14.50224609 240.58872052 -14.50828288 233.10145763 -14.51268864 225.61417913 C-14.51545211 220.94077408 -14.5196895 216.26737109 -14.52419281 211.59396744 C-14.53638059 198.65760618 -14.54668276 185.72124656 -14.5500679 172.78487968 C-14.55028747 171.95737882 -14.55050703 171.12987796 -14.55073325 170.27730132 C-14.55095153 169.44782276 -14.55116981 168.6183442 -14.5513947 167.76372993 C-14.55183817 166.08288375 -14.55228473 164.40203758 -14.55273438 162.72119141 C-14.5529558 161.88743371 -14.55317723 161.05367601 -14.55340537 160.19465293 C-14.55735786 146.66899932 -14.57482777 133.14339944 -14.5980939 119.6177666 C-14.62178141 105.73538933 -14.63426846 91.85303907 -14.63543582 77.97064126 C-14.63635374 70.17430513 -14.64213585 62.37803912 -14.66025543 54.58172226 C-14.67562096 47.9470879 -14.68079776 41.31254536 -14.67251733 34.6778966 C-14.66859894 31.29117536 -14.66959802 27.90463922 -14.68357468 24.51794052 C-14.69617387 20.85163191 -14.69048309 17.18580505 -14.67999268 13.51950073 C-14.68804908 12.44218433 -14.69610548 11.36486793 -14.70440602 10.25490558 C-14.69781618 9.27666517 -14.69122633 8.29842476 -14.6844368 7.2905407 C-14.68503389 6.44381668 -14.68563097 5.59709266 -14.68624616 4.72471035 C-13.41066737 -2.6548161 -5.63019746 -0.74361099 0 0 Z " fill="#FEFEFE" transform="translate(656.3125,334.4375)"/>
<path d="M0 0 C36.00144868 -0.0686177 72.00288593 -0.12150414 108.0043865 -0.15319599 C112.25154098 -0.15694826 116.49869533 -0.16083121 120.74584961 -0.16479492 C121.59140666 -0.16558185 122.43696371 -0.16636878 123.3081437 -0.16717956 C137.01193982 -0.18024511 150.71569831 -0.20390526 164.41947208 -0.23145839 C178.47344844 -0.25948066 192.52740505 -0.27616952 206.5814082 -0.28226548 C215.25840528 -0.28638854 223.93529601 -0.29942602 232.61226036 -0.3237494 C238.55670107 -0.3395674 244.50108654 -0.34440933 250.44554678 -0.34050413 C253.87881822 -0.33857641 257.31190339 -0.34159883 260.74514198 -0.35761642 C264.4620664 -0.37244231 268.17852792 -0.36898963 271.89546204 -0.36076355 C273.5340618 -0.37387134 273.5340618 -0.37387134 275.20576459 -0.38724393 C276.69342573 -0.37828421 276.69342573 -0.37828421 278.21114063 -0.36914349 C279.0696883 -0.37028265 279.92823597 -0.37142181 280.81280023 -0.37259549 C283.51108101 0.08706405 284.4011963 0.80450987 286 3 C286.50124731 8.39342102 285.51582478 13.33924602 284.3125 18.5625 C284.04240112 19.74223389 284.04240112 19.74223389 283.7668457 20.94580078 C279.781143 37.75010904 273.49878422 54.37194654 258.7421875 64.55859375 C233.59981969 79.31987938 202.29864535 72.34954913 175.78027344 65.51733398 C136.45264271 55.18770478 98.21279802 40.41958658 60.29241943 25.87884521 C39.9265439 18.07117617 19.49449219 10.4626565 -1 3 C-0.67 2.01 -0.34 1.02 0 0 Z " fill="#FEFEFE" transform="translate(659,642)"/>
<path d="M0 0 C3.88047765 3.19845431 3.88047765 3.19845431 4.25478697 5.98410434 C3.86169066 9.17795158 3.05243934 10.09716451 0.79450226 12.34808064 C0.09433975 13.05819839 -0.60582276 13.76831614 -1.32720232 14.49995261 C-2.10928293 15.26746901 -2.89136353 16.03498541 -3.69714355 16.82575989 C-4.51793758 17.65082604 -5.3387316 18.47589218 -6.18439817 19.32596034 C-8.46718675 21.61557064 -10.760865 23.89358582 -13.05954719 26.16721904 C-15.5348612 28.62097018 -17.99573921 31.08912354 -20.45838928 33.55557251 C-24.72771821 37.82752507 -29.00611706 42.09021696 -33.29078674 46.34678078 C-39.48569428 52.50107832 -45.66677297 58.66911234 -51.84454793 64.840602 C-61.86756985 74.85267682 -71.90171012 84.85353158 -81.94287109 94.84741211 C-91.6977445 104.55640071 -101.4473603 114.27061931 -111.18994141 123.99194336 C-111.79032752 124.59101585 -112.39071363 125.19008835 -113.00929326 125.80731455 C-116.02117747 128.81267364 -119.03295849 131.81813611 -122.04468822 134.82365 C-147.03595047 159.76306628 -172.04526897 184.68430815 -197.06640625 209.59375 C-198.06640625 207.59375 -198.06640625 207.59375 -197.2734375 205.06640625 C-192.09719628 192.40853905 -186.50101081 179.93946197 -180.90405273 167.4630127 C-179.76780839 164.92740942 -178.63526615 162.39016053 -177.50285339 159.85284424 C-171.79024061 147.05316307 -166.07311415 134.25883694 -160.06640625 121.59375 C-159.38913868 120.15894112 -158.71206776 118.7240394 -158.03515625 117.2890625 C-156.12978049 113.25377318 -154.21676848 109.22215501 -152.30078125 105.19189453 C-151.4663569 103.43557652 -150.63305295 101.67872584 -149.80078125 99.92138672 C-144.39406869 88.50744194 -138.89150601 77.14563352 -133.25390625 65.84375 C-132.72700195 64.78534912 -132.20009766 63.72694824 -131.65722656 62.63647461 C-115.45986213 30.30561549 -96.6508171 -4.51006444 -62.06640625 -19.40625 C-39.90328612 -25.5249028 -17.11586987 -13.03049063 0 0 Z " fill="#FEFEFE" transform="translate(847.06640625,415.40625)"/>
<path d="M0 0 C-25.50353395 25.6407652 -51.02277999 51.26578611 -76.56330968 76.86970166 C-79.57625619 79.89015271 -82.58907184 82.91073426 -85.60180664 85.93139648 C-86.20160866 86.53277236 -86.80141067 87.13414824 -87.41938851 87.75374763 C-97.14035504 97.50084628 -106.85067427 107.2584863 -116.55712303 117.0200398 C-126.51163801 127.03059662 -136.47745619 137.02979462 -146.45393354 147.01846451 C-152.61325932 153.186037 -158.76351982 159.36237539 -164.90260128 165.55010008 C-169.10905988 169.7881914 -173.3264131 174.01523256 -177.55262115 178.23362941 C-179.99332063 180.67047285 -182.42880441 183.11200761 -184.85151482 185.56674767 C-187.47677862 188.22165768 -190.1196619 190.85764439 -192.76799011 193.48951721 C-193.53550651 194.27451066 -194.30302291 195.05950411 -195.09379739 195.86828524 C-195.80391514 196.5664567 -196.51403289 197.26462816 -197.24566936 197.98395634 C-198.1587069 198.90041135 -198.1587069 198.90041135 -199.09018964 199.83538061 C-201 201 -201 201 -203.61672574 200.79177421 C-212.68000863 197.78075957 -218.9305106 182.02091506 -223.01416016 174.06152344 C-224.58214903 170.78264823 -225.68870348 167.48205825 -226.5 163.9453125 C-226.9250954 161.95657981 -226.9250954 161.95657981 -228.00585938 160.17285156 C-231.43711911 152.67329074 -230.27686123 139.61967114 -227.97265625 131.859375 C-216.62984039 103.83225105 -188.16438189 87.89592978 -163 74 C-162.01080566 73.4519873 -161.02161133 72.90397461 -160.00244141 72.33935547 C-145.94754414 64.58351119 -131.7443557 57.27635204 -117.19580078 50.49414062 C-114.33012406 49.15434372 -111.46997882 47.80341447 -108.61207581 46.4471283 C-92.02834344 38.57800144 -75.33654218 30.98774336 -58.54394531 23.57519531 C-50.83423608 20.16901265 -43.15596775 16.72289849 -35.5625 13.0625 C-28.9625405 9.88126809 -22.29324464 6.89476508 -15.5625 4 C-14.66668213 3.61336182 -13.77086426 3.22672363 -12.84790039 2.82836914 C-11.59481079 2.29457642 -11.59481079 2.29457642 -10.31640625 1.75 C-9.57849854 1.43546875 -8.84059082 1.1209375 -8.08032227 0.796875 C-2.60269785 -1.30134893 -2.60269785 -1.30134893 0 0 Z M-228 136 C-227 138 -227 138 -227 138 Z " fill="#FEFEFE" transform="translate(625,651)"/>
<path d="M0 0 C0.33 0.66 0.66 1.32 1 2 C0.15820312 4.36547852 0.15820312 4.36547852 -1.21875 7.37890625 C-1.98711182 9.07611816 -1.98711182 9.07611816 -2.77099609 10.80761719 C-3.34720491 12.05930272 -3.92354357 13.31092849 -4.5 14.5625 C-5.09398369 15.86718457 -5.6872314 17.17220443 -6.27978516 18.47753906 C-7.53673286 21.24302477 -8.79828218 24.00634395 -10.06347656 26.76806641 C-11.94500781 30.87626115 -13.81401119 34.99005394 -15.6796875 39.10546875 C-18.17015736 44.59702592 -20.66489001 50.08661651 -23.1640625 55.57421875 C-26.06937647 61.95377458 -28.97023545 68.33533945 -31.86834717 74.71817017 C-34.37529565 80.23905037 -36.88643137 85.75801719 -39.39874268 91.27645874 C-41.29780909 95.45001267 -43.18643215 99.62815592 -45.0703125 103.80859375 C-49.71359716 114.07933323 -54.52467736 124.17314868 -59.8984375 134.08203125 C-61.96782216 137.90425087 -63.89690891 141.78655276 -65.8125 145.6875 C-73.02061657 160.24705027 -80.53166254 174.76834871 -90 188 C-90.62003906 188.90363281 -91.24007812 189.80726563 -91.87890625 190.73828125 C-102.90905596 206.49245467 -117.61184268 223.88165195 -137.0625 228.375 C-157.98938617 231.60219866 -177.29672248 223.65167124 -194.0625 211.5625 C-196.85537911 209.50797272 -199.54264031 207.45735969 -202 205 C-201.70995015 201.06397986 -200.57718685 199.0773921 -197.82432747 196.32654953 C-196.79999774 195.28842342 -196.79999774 195.28842342 -195.75497448 194.22932506 C-194.99730782 193.48194552 -194.23964115 192.73456598 -193.45901489 191.96453857 C-192.6599009 191.16059575 -191.86078691 190.35665293 -191.03745735 189.52834821 C-188.34838333 186.82797269 -185.64520697 184.14217073 -182.94189453 181.45605469 C-181.01364979 179.52787823 -179.08841104 177.5967103 -177.1630249 175.66567993 C-172.46938934 170.96195866 -167.76513791 166.26899396 -163.05721845 161.57957408 C-157.57776056 156.12087587 -152.10876366 150.65174715 -146.64016412 145.18217459 C-136.88469702 135.42570609 -127.1195979 125.67893514 -117.34912109 115.9375 C-107.86269285 106.47925464 -98.38330572 97.01402585 -88.91162109 87.54101562 C-88.03638279 86.66565746 -88.03638279 86.66565746 -87.14346291 85.77261528 C-86.26975581 84.89878712 -86.26975581 84.89878712 -85.37839806 84.00730586 C-74.60227565 73.22980465 -63.81958954 62.45889171 -53.03382567 51.6910399 C-49.21605007 47.879303 -45.4002355 44.06560955 -41.58502579 40.25130463 C-36.93800758 35.60564909 -32.28723787 30.96378647 -27.63171186 26.32665631 C-25.25521783 23.95941145 -22.88089135 21.59009738 -20.50973892 19.21749496 C-17.94273497 16.64951509 -15.36970356 14.08773552 -12.79495239 11.52752686 C-12.04174717 10.77122443 -11.28854195 10.014922 -10.51251233 9.23570132 C-9.82441035 8.55404824 -9.13630837 7.87239515 -8.42735481 7.17008591 C-7.83363457 6.57777451 -7.23991432 5.98546312 -6.62820256 5.37520289 C-5 4 -5 4 -2 3 C-1.34 2.01 -0.68 1.02 0 0 Z " fill="#FEFEFE" transform="translate(630,655)"/>
<path d="M0 0 C9.73118307 3.59244487 15.62744496 18.21657153 20 27 C26.10255355 40.30781318 29.33252767 57.40731903 24.10546875 71.640625 C17.79569179 85.10742813 9.60133882 93.9383325 -2 103 C-3.04729261 103.83671715 -4.09416033 104.67396636 -5.140625 105.51171875 C-12.42079776 111.28694623 -19.95354672 116.32697387 -28 121 C-28.87035889 121.50732666 -28.87035889 121.50732666 -29.75830078 122.02490234 C-60.21415524 139.69966098 -92.22190102 154.86783255 -124.421875 169.0703125 C-129.6893678 171.39907798 -134.9154567 173.80929186 -140.12962341 176.25431824 C-147.83412648 179.86580597 -155.57294294 183.40190668 -163.3125 186.9375 C-164.07570557 187.28628204 -164.83891113 187.63506409 -165.62524414 187.99441528 C-174.40355598 192.00493004 -183.1832778 196.01193019 -192 199.9375 C-192.69778564 200.24872803 -193.39557129 200.55995605 -194.11450195 200.88061523 C-196.72295356 202.03471068 -199.29165039 203.0972168 -202 204 C-202 202 -202 202 -200.66812825 200.57388222 C-200.11764593 200.05450109 -199.56716361 199.53511996 -199 199 C-198.09384746 197.9473722 -197.19755375 196.88619792 -196.30994797 195.81788445 C-192.75448654 191.64367283 -188.92225949 187.7833222 -185.04083252 183.91384888 C-183.86532164 182.73599801 -183.86532164 182.73599801 -182.66606307 181.53435218 C-180.05220419 178.91651999 -177.43480395 176.30225841 -174.81738281 173.68798828 C-172.93778573 171.80703559 -171.05838423 169.92588932 -169.17921448 168.04450989 C-164.61343603 163.47429581 -160.04497174 158.9067758 -155.47552332 154.34023137 C-151.763414 150.63038338 -148.05228546 146.9195569 -144.34185028 143.20803452 C-143.81314667 142.67917767 -143.28444306 142.15032083 -142.73971812 141.60543802 C-141.66562956 140.53102972 -140.59154323 139.45661918 -139.51745912 138.38220643 C-129.45875013 128.32064947 -119.39698434 118.26215388 -109.33416268 108.20471035 C-100.69548156 99.57050313 -92.05943472 90.93366835 -83.42529297 82.29492188 C-73.39528659 72.25956884 -63.36366644 62.22583358 -53.32944942 52.19469059 C-52.26059306 51.12615279 -51.1917388 50.0576129 -50.12288666 48.98907089 C-49.33404609 48.20046174 -49.33404609 48.20046174 -48.52926935 47.39592109 C-44.81875231 43.68626844 -41.10939889 39.9754547 -37.40048981 36.26419449 C-32.88610232 31.74700809 -28.36994903 27.23159618 -23.85149345 22.71847887 C-21.5451889 20.41480909 -19.23997252 18.11006872 -16.93636513 15.8037014 C-14.44361646 13.30824056 -11.94784116 10.81584785 -9.45123291 8.32424927 C-8.71798019 7.58876582 -7.98472746 6.85328238 -7.22925496 6.09551156 C-6.23083927 5.10100749 -6.23083927 5.10100749 -5.21225357 4.08641243 C-4.63605278 3.51037399 -4.05985199 2.93433556 -3.46619058 2.34084141 C-2 1 -2 1 0 0 Z " fill="#FEFEFE" transform="translate(857,427)"/>
<path d="M0 0 C0.37259549 2.08864939 0.37259549 2.08864939 0.36914349 4.72828102 C0.37511663 5.73199765 0.38108978 6.73571428 0.38724393 7.76984656 C0.3785054 8.88072304 0.36976688 9.99159951 0.36076355 11.13613892 C0.36332682 12.30982729 0.3658901 13.48351567 0.36853105 14.69277036 C0.37263115 17.96063509 0.36320624 21.22814642 0.34819686 24.4959693 C0.33527995 28.01607623 0.33962287 31.53616572 0.34190369 35.05628967 C0.34347918 41.15846315 0.33404121 47.26054064 0.31719017 53.36268997 C0.29284205 62.1854323 0.2849992 71.00812807 0.2812262 79.83090036 C0.27465512 94.14412918 0.25467619 108.4573068 0.22631836 122.77050781 C0.19879475 136.67708072 0.17755287 150.58363974 0.16479492 164.49023438 C0.16400675 165.34697666 0.16321858 166.20371894 0.16240653 167.08642311 C0.1584915 171.38431021 0.15470036 175.6821974 0.15097082 179.98008466 C0.11985448 215.65342628 0.06700086 251.32670842 0 287 C-2.5654594 284.4345406 -2.54046087 282.52313332 -3 279 C-3.66 279 -4.32 279 -5 279 C-5.31453125 278.02160156 -5.6290625 277.04320312 -5.953125 276.03515625 C-8.04036869 269.61595924 -10.16569672 263.35749012 -13.03515625 257.23828125 C-14.62104576 253.55927442 -15.76260905 249.73553812 -16.9921875 245.92578125 C-18.16990956 242.50673543 -19.62031896 239.27870225 -21.13671875 236 C-22 234 -22 234 -22.9375 230.6875 C-24.49883144 225.26876146 -26.79613738 220.18438767 -29 215 C-31.08364232 210.03300756 -33.01503155 205.11892217 -34.5 199.9375 C-35.44461721 196.64674113 -36.55919852 193.6053638 -38 190.5 C-39.8135528 186.59124417 -41.04172415 182.67393738 -42.21875 178.53515625 C-43.01464345 175.95248202 -43.96832715 173.49711723 -45 171 C-46.69469221 166.89165524 -47.99183365 162.76753513 -49.21875 158.5 C-50.28571474 155.08571282 -51.65998863 151.82407336 -53.0234375 148.51953125 C-54.33745828 145.12935765 -55.34117215 141.67626984 -56.34375 138.18359375 C-56.99864366 135.8774715 -56.99864366 135.8774715 -58.125 133.25 C-59 131 -59 131 -59.5 127.9375 C-59.97125729 125.16886343 -60.69729859 123.44256514 -62 121 C-62.845894 117.94945313 -63.44975315 114.85458403 -64.0625 111.75 C-64.32740234 110.41195312 -64.32740234 110.41195312 -64.59765625 109.046875 C-64.73042969 108.37140625 -64.86320313 107.6959375 -65 107 C-65.33 107 -65.66 107 -66 107 C-66.103125 105.865625 -66.20625 104.73125 -66.3125 103.5625 C-66.69498615 100.44250587 -67.3685572 97.70308945 -68.4375 94.75 C-71.93475018 84.75673643 -72.34880563 74.45899609 -72.31567383 63.97216797 C-72.31249281 61.87024967 -72.33615017 59.76971661 -72.36132812 57.66796875 C-72.43698251 41.80623343 -67.68821041 28.99634658 -56.671875 17.3515625 C-45.92247915 7.89083692 -31.82881305 3.01953559 -18.125 -0.3125 C-17.42334717 -0.48426758 -16.72169434 -0.65603516 -15.9987793 -0.83300781 C-5.0057718 -3.3371812 -5.0057718 -3.3371812 0 0 Z M-71 76 C-70 78 -70 78 -70 78 Z M-69 88 C-68 90 -68 90 -68 90 Z " fill="#FEFEFE" transform="translate(636,336)"/>
<path d="M0 0 C2.00995654 -0.0044078 4.01776726 -0.04100089 6.02734375 -0.07861328 C21.1508486 -0.12344581 33.31264471 5.0152051 44.12890625 15.62060547 C57.09728998 28.95823567 63.87522843 49.7195065 64.51171875 68.23388672 C64.37890625 71.37060547 64.37890625 71.37060547 63.37890625 72.37060547 C61.85155406 72.46748549 60.31971194 72.49432248 58.78929043 72.4936533 C57.79104824 72.49564435 56.79280606 72.49763539 55.76431412 72.49968678 C54.65441574 72.49677394 53.54451737 72.49386109 52.40098572 72.49085999 C51.23223532 72.49171441 50.06348492 72.49256884 48.85931784 72.49344915 C45.60071245 72.49481732 42.34214631 72.49166991 39.08354557 72.48667109 C35.57500956 72.48236984 32.06647552 72.48381278 28.55793762 72.48457336 C22.47433471 72.48509881 16.39074248 72.48194989 10.30714226 72.47633553 C1.51117794 72.46822326 -7.28478119 72.46560559 -16.08074885 72.46434753 C-30.35014084 72.46215658 -44.61952712 72.45549533 -58.88891602 72.44604492 C-72.75382458 72.43687192 -86.6187316 72.42979054 -100.48364258 72.42553711 C-101.33766059 72.42527439 -102.1916786 72.42501166 -103.07157595 72.42474098 C-107.35574968 72.42343598 -111.63992343 72.42217226 -115.92409718 72.42092907 C-151.48976677 72.41055512 -187.05542973 72.39293563 -222.62109375 72.37060547 C-220.64109375 71.38060547 -220.64109375 71.38060547 -218.62109375 70.37060547 C-218.62109375 69.71060547 -218.62109375 69.05060547 -218.62109375 68.37060547 C-218.08858505 68.17174744 -217.55607635 67.9728894 -217.00743103 67.76800537 C-210.19010621 65.22166503 -203.37401424 62.67203826 -196.55859375 60.12060547 C-195.46642548 59.71177124 -194.3742572 59.30293701 -193.24899292 58.88171387 C-179.86450309 53.86876313 -166.49852043 48.81558716 -153.18359375 43.62060547 C-144.3857972 40.1898045 -135.57749399 36.84640912 -126.6484375 33.77294922 C-123.70983605 32.7597645 -120.79008364 31.7035052 -117.875 30.62451172 C-35.10045877 -0.00858622 -35.10045877 -0.00858622 0 0 Z " fill="#FEFEFE" transform="translate(880.62109375,563.62939453125)"/>
<path d="M0 0 C12.88919318 3.10895112 24.8945001 9.51262874 36.82299805 15.14355469 C42.99991605 18.03951468 49.25076423 20.76448721 55.5 23.5 C64.72918931 27.5430107 73.90199823 31.66870948 83 36 C85.48425656 37.18076952 87.968724 38.36108987 90.45361328 39.54052734 C92.10119304 40.32308824 93.74805288 41.10716741 95.39404297 41.89306641 C99.89022601 44.03251054 104.40944538 46.07099034 109 48 C109 48.66 109 49.32 109 50 C110.24136719 50.13728516 110.24136719 50.13728516 111.5078125 50.27734375 C115.66804548 51.13824207 119.07930557 52.70511077 122.875 54.5625 C123.56335938 54.89185547 124.25171875 55.22121094 124.9609375 55.56054688 C126.6438733 56.36695361 128.32240293 57.18254494 130 58 C130 58.66 130 59.32 130 60 C130.68884277 60.09949951 131.37768555 60.19899902 132.08740234 60.30151367 C135.58214225 61.13960679 138.40040627 62.53937097 141.6015625 64.17578125 C142.23138535 64.49696426 142.86120819 64.81814728 143.51011658 65.14906311 C145.55274171 66.19537215 147.58937568 67.25264106 149.625 68.3125 C150.32051971 68.67281311 151.01603943 69.03312622 151.7326355 69.40435791 C163.21333646 75.36522715 174.29647945 81.71937889 185 89 C185.63631348 89.42442383 186.27262695 89.84884766 186.92822266 90.28613281 C203.40816762 101.31287043 222.7537243 116.41393471 227.875 136.375 C232.04895516 157.79463815 224.21647787 176.16870513 212.6875 193.8125 C208.264377 200.31709265 208.264377 200.31709265 206 202 C203.09030151 202.33168421 201.55000263 202.37083281 199.09018964 200.71233279 C198.48149795 200.10228457 197.87280626 199.49223635 197.24566936 198.86370182 C196.53555161 198.16415601 195.82543386 197.4646102 195.09379739 196.74386603 C194.32628099 195.96246754 193.55876459 195.18106905 192.76799011 194.37599182 C191.94292396 193.55590336 191.11785782 192.7358149 190.26778966 191.89087528 C187.97817852 189.61002548 185.70015988 187.31828003 183.42653096 185.02151811 C180.97276199 182.54824051 178.50460823 180.08939293 176.03817749 177.62875366 C171.20849834 172.80589924 166.39218866 167.96990079 161.5800946 163.12950749 C155.98048088 157.4980923 150.36720978 151.88037461 144.753148 146.26336896 C134.74087162 136.24502497 124.74018104 126.21519631 114.74633789 116.1784668 C105.03863252 106.4291389 95.32429742 96.68648819 85.60180664 86.9519043 C85.00273415 86.35208359 84.40366165 85.75226288 83.78643545 85.13426579 C81.3787495 82.72360583 78.97104518 80.31296421 76.56330968 77.90235374 C66.19404448 67.52036786 55.83030901 57.13286294 45.46726349 46.74466929 C43.78597244 45.05939336 42.1045477 43.37425091 40.42308974 41.68914151 C34.54016023 35.79320739 28.65888194 29.89564091 22.78230598 23.99337334 C20.35113823 21.55159083 17.91921679 19.11057275 15.48516655 16.67166328 C12.85345168 14.03377347 10.22484085 11.39283122 7.59709167 8.75099182 C6.81842167 7.97182406 6.03975166 7.19265629 5.23748559 6.38987738 C4.54040657 5.68772382 3.84332755 4.98557026 3.12512493 4.26213932 C2.517245 3.65192875 1.90936508 3.04171818 1.28306454 2.41301638 C0 1 0 1 0 0 Z " fill="#FEFEFE" transform="translate(655,649)"/>
<path d="M0 0 C5.3409034 4.46340305 10.32279504 9.17221303 15.24473572 14.09083557 C16.44814624 15.28767272 16.44814624 15.28767272 17.67586809 16.50868839 C20.35130695 19.17082051 23.02320495 21.836477 25.69506836 24.50219727 C27.61682372 26.4165645 29.53927504 28.33023238 31.4616394 30.24398804 C37.21535111 35.97328667 42.96421437 41.7074379 48.71219596 47.44248453 C50.33586991 49.06244151 51.95967152 50.6822704 53.58351827 52.30205417 C63.67481339 62.36813195 73.76452266 72.43579633 83.8494482 82.50825596 C86.17996745 84.83584577 88.51050283 87.16341942 90.84106445 89.4909668 C91.42027582 90.06943212 91.99948719 90.64789744 92.59625042 91.24389201 C101.99960757 100.63456899 111.41321155 110.01490512 120.83100312 119.39110363 C130.50440858 129.02213634 140.16840787 138.66252693 149.82326609 148.31215328 C155.24281828 153.72828851 160.66648366 159.14016291 166.10075188 164.54153633 C170.72309222 169.13594065 175.33692137 173.73867817 179.93970167 178.35268158 C182.28890363 180.70708464 184.64321712 183.05569961 187.00600243 185.3965168 C189.56370705 187.93172146 192.10567729 190.48170835 194.64414978 193.03614807 C195.39810986 193.77622606 196.15206994 194.51630406 196.92887729 195.27880865 C197.60382254 195.96432584 198.27876778 196.64984303 198.97416592 197.35613346 C199.56273512 197.94334614 200.15130433 198.53055882 200.75770897 199.13556582 C202.3794769 201.56952009 202.33588538 203.13188399 202 206 C200.58569336 207.55810547 200.58569336 207.55810547 198.58984375 208.8671875 C197.85411133 209.35719238 197.11837891 209.84719727 196.36035156 210.35205078 C195.56081055 210.85462402 194.76126953 211.35719727 193.9375 211.875 C193.12635742 212.3994873 192.31521484 212.92397461 191.47949219 213.46435547 C174.20936663 224.4007519 155.91220055 230.91904295 135.25 227.4375 C124.85771638 224.58704507 116.54655205 217.34830637 109 210 C108.39800781 209.44828125 107.79601562 208.8965625 107.17578125 208.328125 C98.7367964 200.38092248 92.19815545 190.51996908 85.875 180.875 C85.3893457 180.14039551 84.90369141 179.40579102 84.40332031 178.64892578 C83.95827148 177.95782715 83.51322266 177.26672852 83.0546875 176.5546875 C82.65749512 175.94093262 82.26030273 175.32717773 81.85107422 174.69482422 C81 173 81 173 81 170 C80.34 170 79.68 170 79 170 C77.48987869 167.23456804 75.99369852 164.46183193 74.5 161.6875 C74.07074219 160.90181641 73.64148438 160.11613281 73.19921875 159.30664062 C72.79316406 158.54931641 72.38710938 157.79199219 71.96875 157.01171875 C71.59169922 156.31522217 71.21464844 155.61872559 70.82617188 154.90112305 C70 153 70 153 70 150 C69.34 150 68.68 150 68 150 C65.85349095 145.80593445 63.71759359 141.60669865 61.59130859 137.40234375 C60.86665656 135.97314189 60.13913757 134.54538988 59.40869141 133.11914062 C58.35861342 131.0675597 57.31899183 129.01096768 56.28125 126.953125 C55.95314331 126.31755676 55.62503662 125.68198853 55.2869873 125.02716064 C53.60703176 121.66893964 53 119.84891487 53 116 C52.34 116 51.68 116 51 116 C50.56429687 114.98421875 50.12859375 113.9684375 49.6796875 112.921875 C49.07897082 111.53088442 48.47734299 110.14028711 47.875 108.75 C47.56167725 108.02651367 47.24835449 107.30302734 46.92553711 106.55761719 C44.52138097 101.06205685 41.89641123 95.7436826 39.06640625 90.453125 C38 88 38 88 38 84 C37.34 84 36.68 84 36 84 C33.84911964 79.2416278 31.77541931 74.46414136 29.8125 69.625 C26.85088735 62.46394898 23.4867008 55.50223694 20.1484375 48.51171875 C17.21173799 42.36100737 14.34397505 36.18140961 11.69140625 29.90234375 C10.36184735 26.78687292 8.94999123 23.71493056 7.51953125 20.64453125 C7.07802734 19.69255859 6.63652344 18.74058594 6.18164062 17.75976562 C5.26231941 15.78079884 4.33776095 13.80425727 3.40820312 11.83007812 C2.97056641 10.88197266 2.53292969 9.93386719 2.08203125 8.95703125 C1.68218018 8.10085205 1.2823291 7.24467285 0.87036133 6.36254883 C0 4 0 4 0 0 Z " fill="#FEFEFE" transform="translate(650,655)"/>
<path d="M0 0 C9.91239883 8.70591919 18.73764364 18.4152574 25.9296875 29.484375 C26.54336182 30.41056641 26.54336182 30.41056641 27.16943359 31.35546875 C46.91147837 61.2261636 62.14913666 94.0026503 77.01837158 126.49383545 C77.98235588 128.59941579 78.94782077 130.70431258 79.91357422 132.80908203 C93.79358214 163.06386987 93.79358214 163.06386987 99.53759766 175.93725586 C101.53922239 180.41953073 103.57240134 184.88586125 105.63272095 189.34140015 C106.95060099 192.19445786 108.26081238 195.05100888 109.57049561 197.90783691 C110.22295068 199.32587974 110.87888022 200.74232944 111.53839111 202.15710449 C112.46160876 204.13852171 113.372601 206.12514998 114.28125 208.11328125 C115.08296631 209.8468689 115.08296631 209.8468689 115.90087891 211.61547852 C116.9296875 214.484375 116.9296875 214.484375 115.9296875 217.484375 C90.33172282 191.95503384 64.74163213 166.41782675 39.1621165 140.86999999 C36.14418609 137.85582183 33.12619038 134.84170907 30.1081543 131.82763672 C29.50730304 131.22757239 28.90645178 130.62750806 28.28739291 130.00925997 C18.55042038 120.2853516 8.8081635 110.56675411 -0.93604671 100.85009918 C-10.92977552 90.88439647 -20.91782725 80.91303059 -30.90060002 70.93635297 C-37.06375669 64.77731854 -43.23133139 58.62277705 -49.40457965 52.47385725 C-53.63382257 48.26043704 -57.85755276 44.04154298 -62.07693916 39.81825247 C-64.51371937 37.3795453 -66.95290418 34.9433739 -69.39864922 32.51365471 C-72.04581918 29.88131985 -74.683676 27.2399974 -77.31932068 24.59613037 C-78.09848844 23.82570113 -78.87765621 23.05527189 -79.68043512 22.26149631 C-80.38258868 21.5533696 -81.08474224 20.8452429 -81.80817318 20.11565781 C-82.41838375 19.5065864 -83.02859432 18.89751499 -83.65729612 18.26998687 C-85.22862683 16.28431507 -85.85212311 15.00619647 -86.0703125 12.484375 C-75.61446562 -0.20495146 -53.906845 -9.1483185 -38.3203125 -12.265625 C-23.47945734 -13.40722924 -11.59586873 -9.50094079 0 0 Z " fill="#FEFEFE" transform="translate(513.0703125,407.515625)"/>
<path d="M0 0 C5.29453737 2.6711539 9.06677465 6.79477874 13.19404602 10.95353699 C14.42551991 12.18244761 14.42551991 12.18244761 15.68187207 13.4361847 C17.95453175 15.70612239 20.22265296 17.98048407 22.48892605 20.25679481 C24.93581748 22.71233066 27.38849389 25.16207628 29.84046936 27.61253357 C34.086201 31.85721699 38.32825811 36.10554416 42.56783485 40.35637474 C48.69753945 46.50233986 54.83276536 52.64276882 60.96934881 58.78186468 C70.92562151 68.74251362 80.87742056 78.70761983 90.82641602 88.67553711 C100.49041236 98.3578941 110.156509 108.03814634 119.82543945 117.71557617 C120.42152495 118.31218712 121.01761045 118.90879806 121.63175914 119.52348813 C124.6221858 122.51652487 127.61265381 125.50952029 130.60314238 128.50249517 C155.40851016 153.32859322 180.20662176 178.16192841 205 203 C204.34 203.33 203.68 203.66 203 204 C201.0300293 203.31005859 201.0300293 203.31005859 198.57421875 202.1484375 C197.18505249 201.5002002 197.18505249 201.5002002 195.76782227 200.83886719 C194.75131592 200.35579102 193.73480957 199.87271484 192.6875 199.375 C190.4823644 198.34508234 188.27660888 197.31649117 186.0703125 196.2890625 C184.90918945 195.74668945 183.74806641 195.20431641 182.55175781 194.64550781 C176.74756398 191.95646008 170.90464971 189.35528298 165.0625 186.75 C139.44229286 175.29417006 113.92362211 163.64288857 88.56095886 151.62654114 C84.85336641 149.8712708 81.13896096 148.13228166 77.4140625 146.4140625 C66.15889472 141.20631152 55.27822435 135.41182974 44.45019531 129.36767578 C42.31183252 128.17406196 40.1685466 126.99001453 38.0234375 125.80859375 C18.54825368 114.9279888 -6.75698352 100.11408855 -18 80 C-18 79.01 -18 78.02 -18 77 C-18.66 77 -19.32 77 -20 77 C-26.2065177 62.61417862 -27.11306462 48.93245836 -21.25 34.10302734 C-9.77812812 6.51875208 -9.77812812 6.51875208 0 0 Z M-23 42 C-22 44 -22 44 -22 44 Z " fill="#FEFEFE" transform="translate(420,427)"/>
<path d="M0 0 C1.42300415 0.00519653 1.42300415 0.00519653 2.87475586 0.01049805 C17.4428727 0.2302155 32.7161359 2.6970453 46.5625 7.3125 C48.31032173 7.79955223 50.0606144 8.27777385 51.8125 8.75 C58.1922717 10.48308759 64.51421581 12.27817412 70.77734375 14.39453125 C74.35977102 15.57527516 77.9604644 16.69327976 81.5625 17.8125 C84.22951153 18.64473502 86.89602651 19.47854121 89.5625 20.3125 C90.42359375 20.580625 91.2846875 20.84875 92.171875 21.125 C96.38451059 22.47796325 100.42821591 24.0785083 104.5 25.8125 C109.0351141 27.73718629 113.54063013 29.28839432 118.2734375 30.640625 C123.83131243 32.27194665 129.11486358 34.54494826 134.4375 36.8125 C138.97039872 38.7225894 143.47107344 40.23166666 148.19921875 41.56640625 C151.36190663 42.56487465 154.28587808 43.95143893 157.2890625 45.34765625 C159.64469499 46.34738344 161.97384402 47.06219699 164.4375 47.75 C169.21596657 49.10253642 173.54523598 51.07289895 178.03125 53.18359375 C181.13683439 54.56864605 184.2782726 55.44496823 187.5625 56.3125 C190.2443373 57.28351006 192.90363514 58.28240997 195.5625 59.3125 C196.56796875 59.69664062 197.5734375 60.08078125 198.609375 60.4765625 C201.93022509 61.74721641 205.24705496 63.02781492 208.5625 64.3125 C209.47902344 64.66570312 210.39554688 65.01890625 211.33984375 65.3828125 C216.57371797 67.43120087 221.57225301 69.72496452 226.5625 72.3125 C223.63627348 73.28790884 221.80191088 73.43200405 218.75802326 73.41993046 C217.76276577 73.41843811 216.76750828 73.41694576 215.74209148 73.41540819 C214.64580069 73.4086044 213.54950989 73.40180061 212.41999817 73.39479065 C211.25770602 73.39156152 210.09541388 73.38833239 208.89790076 73.38500541 C205.66660379 73.37500712 202.43536353 73.36046056 199.20409405 73.34402263 C195.72150951 73.3274043 192.23890642 73.31660947 188.75630188 73.30511475 C182.72074093 73.28439319 176.68520405 73.2599651 170.64966774 73.23303413 C161.92324825 73.1941016 153.1968145 73.16073634 144.47036716 73.12873887 C130.3129915 73.07667609 116.15563763 73.02009794 101.99829102 72.96069336 C88.24406787 72.90298994 74.48983886 72.84740491 60.7355957 72.79467773 C59.88807713 72.79142802 59.04055856 72.7881783 58.1673576 72.7848301 C53.9156934 72.76854065 49.66402904 72.75229294 45.4123646 72.73606598 C10.12904942 72.60134923 -25.15423315 72.45931002 -60.4375 72.3125 C-64.76301804 64.21571746 -60.94492486 54.21909937 -58.5234375 45.875 C-53.78224012 30.32114384 -45.38862088 14.89970154 -30.66040039 7.01708984 C-29.96809326 6.6608252 -29.27578613 6.30456055 -28.5625 5.9375 C-27.91466553 5.60314941 -27.26683105 5.26879883 -26.59936523 4.92431641 C-18.08141045 0.81920151 -9.35711058 -0.05666875 0 0 Z M-60.4375 57.3125 C-59.4375 59.3125 -59.4375 59.3125 -59.4375 59.3125 Z " fill="#FEFEFE" transform="translate(396.4375,563.6875)"/>
<path d="M0 0 C1.50034985 0.00223852 1.50034985 0.00223852 3.03100979 0.00452226 C4.69148809 0.01472795 4.69148809 0.01472795 6.3855114 0.02513981 C7.55511622 0.02836894 8.72472105 0.03159806 9.92976844 0.03492504 C13.18612751 0.04493471 16.44243075 0.05948405 19.69876266 0.07590783 C23.20658671 0.09250871 26.71442905 0.10331611 30.22227287 0.11481571 C36.30314143 0.13554866 42.3839862 0.15997834 48.4648304 0.18689632 C57.25678422 0.22581022 66.04875215 0.25918393 74.84073351 0.29119159 C89.10403844 0.34326895 103.36732185 0.39984678 117.63059807 0.4592371 C131.48866246 0.51693057 145.34673264 0.5725155 159.20481682 0.62525272 C160.05857211 0.62850244 160.91232739 0.63175216 161.79195406 0.63510036 C166.07485703 0.65138968 170.35776017 0.66763741 174.64066339 0.68386447 C210.18958104 0.81860602 245.73846646 0.96064389 281.28733635 1.10743046 C277.76052205 3.89489349 274.28718958 5.32331419 270.05296135 6.72071171 C262.8858678 9.16989165 255.78721362 11.76710418 248.70921135 14.46289921 C247.69247841 14.84983448 246.67574547 15.23676975 245.62820244 15.63543034 C243.51636536 16.44015124 241.40481281 17.24561921 239.29353142 18.05179691 C235.9685073 19.32120766 232.64234741 20.58760198 229.3159008 21.85328007 C220.07144136 25.37169468 210.82938596 28.89617253 201.5959301 32.44336796 C186.40157079 38.26963271 171.11519385 43.74755749 155.6974926 48.95508671 C152.45420752 50.05104215 149.21434112 51.15661136 145.97483635 52.26368046 C132.19196114 56.94681516 118.31290001 61.21043291 104.28733635 65.10743046 C103.529851 65.31883671 102.77236565 65.53024296 101.99192619 65.74805546 C78.19042777 72.30329485 47.83840493 78.20933821 24.7443676 66.85743046 C22.39255402 65.43257954 20.37641084 63.89474975 18.28733635 62.10743046 C17.4674926 61.40875858 16.64764885 60.71008671 15.80296135 59.99024296 C3.93679633 49.02302983 -4.88582364 32.36861735 -5.71266365 16.10743046 C-6.04266365 16.10743046 -6.37266365 16.10743046 -6.71266365 16.10743046 C-8.10914803 5.04297733 -8.10914803 5.04297733 -6.71266365 1.10743046 C-4.27168288 -0.11305993 -2.72871171 -0.01074296 0 0 Z " fill="#FEFEFE" transform="translate(341.7126636505127,642.8925695419312)"/>
<path d="M0 0 C1.21612069 2.43224137 1.1192977 3.96024252 1.11022377 6.6786356 C1.1089103 8.16761021 1.1089103 8.16761021 1.10757029 9.68666512 C1.10144862 10.78518663 1.09532695 11.88370814 1.08901978 13.01551819 C1.08649621 14.17625034 1.08397265 15.3369825 1.08137262 16.53288835 C1.07330594 19.76451182 1.06069222 22.99608146 1.04618168 26.22768128 C1.03163156 29.70894141 1.02285701 33.19021664 1.01335144 36.67149353 C0.99377181 43.49490367 0.96872596 50.31828342 0.9417484 57.14166791 C0.91993173 62.68460857 0.9000754 68.22755301 0.88163376 73.77050591 C0.87770057 74.95197024 0.87770057 74.95197024 0.87368792 76.15730254 C0.86837053 77.75716173 0.86305774 79.35702093 0.85774951 80.95688014 C0.80769761 95.97239178 0.75147102 110.98787547 0.69314377 126.00335693 C0.6431858 138.90106855 0.59848005 151.79878967 0.55761719 164.6965332 C0.51021227 179.65833491 0.45959282 194.62011997 0.40379179 209.58189291 C0.39785633 211.17569854 0.39192497 212.76950419 0.38599777 214.36330986 C0.38307939 215.14758649 0.380161 215.93186312 0.37715418 216.7399057 C0.35676237 222.2798514 0.33868675 227.81980193 0.32149124 233.35975838 C0.30048876 240.10577214 0.27596141 246.85176191 0.24684478 253.59774572 C0.23206501 257.04285944 0.21891229 260.48795959 0.21003914 263.93309402 C0.19959405 267.65925365 0.18308853 271.38533656 0.16494751 275.11146545 C0.16245717 276.76259381 0.16245717 276.76259381 0.15991652 278.44707829 C0.15382538 279.43712028 0.14773423 280.42716228 0.14145851 281.44720554 C0.1382584 282.30846627 0.13505828 283.16972699 0.13176119 284.05708653 C0 286 0 286 -1 287 C-21.26696937 287.20765337 -43.18370528 278.79911156 -57.9609375 265.14453125 C-61.19142324 261.74695142 -63.6485477 258.04084521 -66 254 C-66.556875 253.071875 -67.11375 252.14375 -67.6875 251.1875 C-81.60216847 217.39473372 -64.84627683 174.33648494 -54 142 C-53.31766787 139.94532594 -52.63537649 137.89063834 -51.953125 135.8359375 C-43.56909075 110.71021879 -34.28441353 85.89073972 -24.85131836 61.14306641 C-22.29151938 54.42422816 -19.77212305 47.69359832 -17.3125 40.9375 C-14.61720204 33.5375789 -11.73292454 26.22252587 -8.7512207 18.93334961 C-6.61749594 13.68500896 -4.72637104 8.39611508 -3 3 C-2.34 3 -1.68 3 -1 3 C-0.67 2.01 -0.34 1.02 0 0 Z M-69 200 C-68 202 -68 202 -68 202 Z M-71 214 C-70 217 -70 217 -70 217 Z M-71 234 C-70 236 -70 236 -70 236 Z " fill="#FEFEFE" transform="translate(636,658)"/>
<path d="M0 0 C2.62626555 1.31313277 2.69816089 2.33718909 3.70483398 5.05957031 C4.19249237 6.36207985 4.19249237 6.36207985 4.69000244 7.69090271 C5.03851257 8.64368607 5.38702271 9.59646942 5.74609375 10.578125 C6.11321472 11.564142 6.48033569 12.550159 6.85858154 13.5660553 C8.05804506 16.79166906 9.24771803 20.0208041 10.4375 23.25 C11.25810142 25.46146715 12.07947353 27.67264848 12.90161133 29.88354492 C14.52865648 34.25983749 16.15291397 38.63714858 17.77539062 43.01513672 C20.53927833 50.46299567 23.35636566 57.89000433 26.1875 65.3125 C29.53346834 74.11170583 32.86088335 82.91597266 36.08203125 91.76171875 C37.57406272 95.85769844 39.10282255 99.93905377 40.63671875 104.01953125 C46.53984313 119.80952404 51.94512536 135.71040261 56.9375 151.8125 C57.20645081 152.67489288 57.47540161 153.53728577 57.75250244 154.42581177 C80.15985119 226.50424609 80.15985119 226.50424609 65.83203125 255.3515625 C64.66951301 257.3605746 63.41675185 259.16362371 62 261 C61.57074219 261.59039063 61.14148438 262.18078125 60.69921875 262.7890625 C48.99419021 277.75831027 28.34313638 283.81307552 10.3125 286.7265625 C7.1460164 287.10097779 4.1835556 287.20762319 1 287 C0 286 0 286 -0.1241985 284.04196113 C-0.12381878 283.17354074 -0.12343906 282.30512034 -0.12304783 281.41038418 C-0.12503888 280.41214199 -0.12702993 279.41389981 -0.12908131 278.38540787 C-0.12616847 277.27550949 -0.12325563 276.16561112 -0.12025452 275.02207947 C-0.12110894 273.85332907 -0.12196337 272.68457867 -0.12284368 271.48041159 C-0.12421185 268.2218062 -0.12106444 264.96324006 -0.11606562 261.70463932 C-0.11176437 258.19610331 -0.11320731 254.68756927 -0.1139679 251.17903137 C-0.11449334 245.09542846 -0.11134443 239.01183623 -0.10573006 232.92823601 C-0.0976178 224.13227169 -0.09500012 215.33631256 -0.09374207 206.5403449 C-0.09155111 192.27095291 -0.08488986 178.00156663 -0.07543945 163.73217773 C-0.06626645 149.86726917 -0.05918507 136.00236215 -0.05493164 122.13745117 C-0.05466892 121.28343316 -0.05440619 120.42941515 -0.05413551 119.5495178 C-0.05283051 115.26534407 -0.05156679 110.98117032 -0.05032361 106.69699657 C-0.03994965 71.13132698 -0.02233016 35.56566402 0 0 Z " fill="#FEFEFE" transform="translate(644,658)"/>
<path d="M0 0 C0.33 0 0.66 0 1 0 C1 92.4 1 184.8 1 280 C0.67 280 0.34 280 0 280 C0 187.6 0 95.2 0 0 Z " fill="#FEFEFE" transform="translate(642,661)"/>
<path d="M0 0 C91.08 0 182.16 0 276 0 C276 0.33 276 0.66 276 1 C184.92 1 93.84 1 0 1 C0 0.67 0 0.34 0 0 Z " fill="#FEFEFE" transform="translate(339,642)"/>
<path d="M0 0 C6.27 0 12.54 0 19 0 C19 0.33 19 0.66 19 1 C12.73 1 6.46 1 0 1 C0 0.67 0 0.34 0 0 Z " fill="#FEFEFE" transform="translate(874,563)"/>
<path d="M0 0 C0.33 0 0.66 0 1 0 C1 6.27 1 12.54 1 19 C0.67 19 0.34 19 0 19 C0 12.73 0 6.46 0 0 Z " fill="#FEFEFE" transform="translate(563,387)"/>
<path d="M0 0 C0.33 0 0.66 0 1 0 C1 2.64 1 5.28 1 8 C0.67 8 0.34 8 0 8 C0 5.36 0 2.72 0 0 Z " fill="#FEFEFE" transform="translate(395,794)"/>
<path d="" fill="#FEFEFE" transform="translate(0,0)"/>
<path d="" fill="#FEFEFE" transform="translate(0,0)"/>
</svg>
