<?xml version="1.0" encoding="UTF-8"?>
<!-- Generator: visioncortex VTracer 0.6.2 -->
<svg version="1.1" xmlns="http://www.w3.org/2000/svg"  xmlns:xlink="http://www.w3.org/1999/xlink" preserveAspectRatio="xMidYMid meet" viewBox="344.5639097744361 330.27819548872174 111.73684210526318 91.21804511278197" width="54" height="54">
<path d="M0 0 C56.06874459 -0.06845648 112.13749329 -0.13214115 168.20626831 -0.16937256 C169.03577538 -0.16992479 169.86528245 -0.17047702 170.7199261 -0.17104598 C188.74627196 -0.18301692 206.77261826 -0.19409774 224.79896522 -0.20426132 C233.63876337 -0.20925077 242.4785614 -0.21443697 251.31835938 -0.21972656 C252.19803717 -0.2202496 253.07771496 -0.22077263 253.98404965 -0.22131152 C282.50969367 -0.23836447 311.03530605 -0.26841533 339.56093089 -0.30518888 C368.86864288 -0.34290214 398.17633735 -0.3675378 427.48407319 -0.37565996 C431.62122701 -0.37681262 435.75838077 -0.37811517 439.89553452 -0.37950897 C440.70980561 -0.37977866 441.52407671 -0.38004836 442.36302268 -0.38032622 C455.48366825 -0.38505766 468.60425974 -0.40362218 481.72488323 -0.42732814 C494.90759957 -0.45085221 508.09026216 -0.45987818 521.27299877 -0.45400551 C529.11027175 -0.45095746 536.94734838 -0.45912499 544.78458601 -0.48319017 C550.62932194 -0.49991493 556.47392118 -0.49586751 562.3186724 -0.48359558 C564.68888996 -0.48189813 567.05912381 -0.48703593 569.42930903 -0.49953273 C572.64089696 -0.51548741 575.85151009 -0.50699357 579.06308174 -0.49219131 C580.45687782 -0.5079534 580.45687782 -0.5079534 581.87883139 -0.5240339 C587.99855557 -0.45990076 591.56934648 0.56934648 596 5 C596.70120774 12.49360606 595.35950632 19.63740402 593.8125 26.9375 C593.58618896 28.02998047 593.35987793 29.12246094 593.12670898 30.24804688 C588.84499211 50.54875371 583.43069431 70.4237254 574 89 C573.68192383 89.6276123 573.36384766 90.25522461 573.03613281 90.90185547 C567.81406491 101.06083562 561.74443377 109.61887885 554 118 C553.33355469 118.74765625 552.66710938 119.4953125 551.98046875 120.265625 C532.44695445 141.1562045 504.0327348 147.95797909 476.47802734 149.10498047 C420.92528569 150.83195313 364.93430684 134.58508482 312.67138672 117.20849609 C308.63408147 115.87955202 304.58613401 114.58726899 300.53515625 113.30078125 C277.64658716 106.01376943 255.02004332 98.08048238 232.44189453 89.88598633 C230.10104089 89.03666041 227.75962629 88.18890354 225.41796875 87.34179688 C217.21374602 84.37334627 209.01483331 81.39063173 200.8203125 78.39550781 C197.07942184 77.02833304 193.33658482 75.66653106 189.59375 74.3046875 C174.69356452 68.87354708 159.84433856 63.31787619 145.01806641 57.68847656 C136.04055227 54.28074041 127.0563822 50.89167233 118.0625 47.52734375 C117.04227753 47.14569565 116.02205505 46.76404755 114.97091675 46.37083435 C112.8949864 45.59434015 110.81904846 44.81786623 108.74310303 44.04141235 C90.42984587 37.19083391 72.16377514 30.23441175 53.94335938 23.14111328 C43.71144771 19.1742955 33.40489123 15.40600854 23.10522461 11.61962891 C15.39019044 8.78171462 7.69307119 5.89683922 0 3 C0 2.01 0 1.02 0 0 Z " fill="#FEFEFE" transform="translate(676,645)"/>
<path d="M0 0 C0.33 0.66 0.66 1.32 1 2 C0.24658203 4.11279297 0.24658203 4.11279297 -0.9921875 6.7421875 C-1.671604 8.20144653 -1.671604 8.20144653 -2.36474609 9.69018555 C-2.86312988 10.74117432 -3.36151367 11.79216309 -3.875 12.875 C-4.90684488 15.08696218 -5.93808719 17.29920554 -6.96875 19.51171875 C-7.74412109 21.1676001 -7.74412109 21.1676001 -8.53515625 22.85693359 C-10.52044446 27.11670034 -12.45442267 31.39825561 -14.375 35.6875 C-14.73247314 36.48397949 -15.08994629 37.28045898 -15.45825195 38.10107422 C-16.2221054 39.80335722 -16.98551714 41.50583847 -17.74853516 43.20849609 C-19.12627562 46.28166904 -20.50644921 49.35374341 -21.88671875 52.42578125 C-22.94550187 54.78376914 -24.00408904 57.14184503 -25.0625 59.5 C-25.33137024 60.0990213 -25.60024048 60.6980426 -25.8772583 61.31521606 C-29.29545111 68.93345602 -32.6950412 76.55968281 -36.07421875 84.1953125 C-49.06976034 113.55128723 -49.06976034 113.55128723 -55.0078125 125.83984375 C-59.23396913 134.6061064 -63.23020892 143.47934482 -67.18432617 152.37084961 C-74.02554548 167.74998174 -81.07951551 183.02691702 -88.17578125 198.28979492 C-92.39230384 207.36070832 -96.58081399 216.44122949 -100.6875 225.5625 C-104.28016798 233.52370663 -108.08217494 241.35573667 -112.04980469 249.13623047 C-113.62763777 252.231086 -115.19153058 255.33285443 -116.75 258.4375 C-117.07564941 259.08565674 -117.40129883 259.73381348 -117.73681641 260.40161133 C-120.22935418 265.3908273 -122.63304562 270.41927897 -125.02416992 275.45776367 C-136.43334123 299.45948931 -148.6262584 323.0311416 -162 346 C-162.62374512 347.07733398 -163.24749023 348.15466797 -163.89013672 349.26464844 C-179.54704725 376.25612793 -196.36431309 402.50456436 -217 426 C-217.78761719 426.92167969 -218.57523438 427.84335938 -219.38671875 428.79296875 C-220.10472656 429.62441406 -220.82273437 430.45585938 -221.5625 431.3125 C-222.18253906 432.03050781 -222.80257812 432.74851562 -223.44140625 433.48828125 C-225 435 -225 435 -227 435 C-227.26554688 435.598125 -227.53109375 436.19625 -227.8046875 436.8125 C-236.24292089 452.25501863 -262.25108914 464.86750168 -278.234375 469.9921875 C-312.17202006 479.07508421 -344.89970189 470.17380272 -375 454 C-375.93328125 453.52175781 -376.8665625 453.04351563 -377.828125 452.55078125 C-385.82687371 448.37179428 -393.35160017 443.42546322 -400.85449219 438.42578125 C-402.26440729 437.48883266 -403.67901897 436.55890625 -405.09863281 435.63671875 C-407.05879138 434.36068657 -408.99971945 433.05968994 -410.9375 431.75 C-411.81498901 431.18684082 -411.81498901 431.18684082 -412.71020508 430.61230469 C-415.76388246 428.49874821 -417.01993101 426.95382218 -418.50390625 423.515625 C-419.06687724 419.52606682 -418.8635585 418.50057497 -417 415 C-414.92185262 412.49485726 -412.62816566 410.22767048 -410.31510353 407.94037342 C-409.6166959 407.23790506 -408.91828826 406.5354367 -408.19871676 405.81168142 C-405.84200436 403.44497402 -403.47468877 401.08916351 -401.10733032 398.73310852 C-399.40427396 397.02731329 -397.70187388 395.32086261 -396.00007665 393.61381119 C-392.29098279 389.89631763 -388.57724759 386.18355352 -384.85937691 382.47484398 C-379.33089185 376.95994429 -373.81099859 371.43650487 -368.29280324 365.91131171 C-358.4380912 356.04466277 -348.57487517 346.18654974 -338.70813947 336.33192621 C-330.07405578 327.7083697 -321.44296639 319.08182978 -312.81483078 310.45232201 C-312.24298754 309.88039473 -311.6711443 309.30846746 -311.08197247 308.71920906 C-308.76081267 306.39769703 -306.43966876 304.07616911 -304.11854752 301.75461853 C-282.33549613 279.96760023 -260.54410659 258.18893933 -238.74869208 236.41428965 C-219.37457183 217.05854069 -200.00674103 197.69652074 -180.64453125 178.32885742 C-179.40125656 177.08523629 -178.15798169 175.84161533 -176.91470666 174.59799454 C-176.30006211 173.983179 -175.68541756 173.36836345 -175.05214742 172.73491714 C-171.95826056 169.64017676 -168.86435883 166.54545124 -165.77044106 163.45074177 C-165.16009083 162.84023446 -164.5497406 162.22972716 -163.92089492 161.60071963 C-147.75279582 145.42863279 -131.57996868 129.26127577 -115.40562379 113.0954358 C-113.66578887 111.35650794 -111.92595465 109.61757937 -110.186122 107.87864923 C-109.03190913 106.72503747 -107.8776925 105.57142947 -106.7234721 104.41782524 C-98.66849944 96.36707815 -90.61535515 88.31450618 -82.56344678 80.26069443 C-72.18866742 69.88347488 -61.81065404 59.50950807 -51.42685534 49.14131299 C-45.93228885 43.65481239 -40.44048371 38.16558163 -34.95259053 32.67240583 C-30.86189023 28.57838997 -26.76600595 24.48958917 -22.66802244 20.40286281 C-21.00544286 18.74322624 -19.34456718 17.08188075 -17.68551786 15.41871516 C-15.44042669 13.16855746 -13.18934667 10.92457121 -10.93657875 8.68210316 C-10.28506383 8.02619175 -9.63354892 7.37028035 -8.96229112 6.69449285 C-8.36181309 6.09927808 -7.76133507 5.50406332 -7.14266074 4.89081174 C-6.37122787 4.11991776 -6.37122787 4.11991776 -5.58421049 3.33345016 C-3.83513775 1.86123335 -2.07545077 0.94282687 0 0 Z " fill="#FEFEFE" transform="translate(620,671)"/>
<path d="M0 0 C0.66 0 1.32 0 2 0 C2.29656494 0.81452637 2.59312988 1.62905273 2.89868164 2.46826172 C4.03597661 5.58894453 5.17504353 8.70897003 6.31518555 11.82861328 C6.80153663 13.16039859 7.28724754 14.49241791 7.7722168 15.82470703 C10.78136795 24.08967484 13.8802791 32.31285977 17.08436584 40.50421143 C21.39720583 51.54815956 25.58036512 62.64192464 29.78143692 73.72874451 C30.51058034 75.65292104 31.23993604 77.577017 31.96932983 79.50109863 C44.0400229 111.34516708 56.00536834 143.2259766 67.78833008 175.17773438 C71.0603216 184.04981757 74.33686559 192.91994523 77.6484375 201.77734375 C83.60272696 217.70888613 89.41394106 233.66866899 94.89648438 249.77050781 C96.06190128 253.18115711 97.24034232 256.58708895 98.421875 259.9921875 C104.41903623 277.28314476 110.28288887 294.61460368 116 312 C116.33128906 313.00643555 116.66257812 314.01287109 117.00390625 315.04980469 C129.98336402 354.65344309 140.89621368 395.58018984 146 437 C146.10441406 437.81742676 146.20882812 438.63485352 146.31640625 439.47705078 C150.72910327 474.71578793 149.26569139 513.14277813 126.9921875 542.4765625 C126.00605469 543.72566406 126.00605469 543.72566406 125 545 C124.44570313 545.70898438 123.89140625 546.41796875 123.3203125 547.1484375 C99.17061535 576.38228142 58.00720248 587.09848944 22.5 593.9375 C21.36030762 594.16139404 20.22061523 594.38528809 19.04638672 594.6159668 C7.90654582 596.6591872 7.90654582 596.6591872 3 595 C-1.46796553 589.93195853 -1.56763255 585.67672388 -1.49498463 579.09990311 C-1.4998996 578.10250388 -1.50481457 577.10510466 -1.50987849 576.07748121 C-1.52150974 572.72044047 -1.5045103 569.3641515 -1.48774719 566.00714111 C-1.49020664 563.58212802 -1.49442033 561.15711618 -1.50024194 558.73210883 C-1.50887111 553.45209303 -1.50503688 548.17230332 -1.49028015 542.89231682 C-1.46839798 535.04110789 -1.46942204 527.19001883 -1.47511442 519.33878745 C-1.48402012 506.13140894 -1.47415866 492.92410619 -1.45348549 479.71674347 C-1.43304438 466.63708204 -1.42043379 453.55745337 -1.41844749 440.47777557 C-1.41831766 439.6646927 -1.41818783 438.85160983 -1.41805406 438.01388808 C-1.41755413 434.7135204 -1.41711416 431.41315271 -1.41675197 428.11278501 C-1.41344828 398.02975772 -1.39109309 367.94677612 -1.35668945 337.86376953 C-1.32420718 309.44742663 -1.3029551 281.03110678 -1.29516602 252.61474609 C-1.29492297 251.73909056 -1.29467993 250.86343502 -1.29442953 249.96124447 C-1.29320749 245.55090032 -1.29200419 241.14055617 -1.29080774 236.73021202 C-1.29057147 235.85995946 -1.2903352 234.9897069 -1.29009177 234.09308304 C-1.2896176 232.33830169 -1.28914744 230.58352034 -1.2886813 228.82873898 C-1.28121409 200.91129349 -1.26543636 172.99385226 -1.24748212 145.07641174 C-1.24223275 136.89679992 -1.23728899 128.71718817 -1.2331202 120.53757572 C-1.22424844 103.3344623 -1.21262547 86.13135948 -1.19155417 68.92825612 C-1.1829006 61.81117947 -1.17574016 54.69410993 -1.17303848 47.57702827 C-1.17056152 41.0723004 -1.16312653 34.56759266 -1.15204801 28.06287274 C-1.14882677 25.69964219 -1.14731076 23.33640864 -1.1475983 20.97317591 C-1.14772242 17.78100143 -1.1417935 14.58889641 -1.13422108 11.39673233 C-1.13644651 9.99455984 -1.13644651 9.99455984 -1.13871691 8.56406063 C-1.13544471 7.7196875 -1.13217252 6.87531436 -1.12880117 6.00535417 C-1.12806219 5.27452355 -1.12732321 4.54369294 -1.12656184 3.79071595 C-1 2 -1 2 0 0 Z " fill="#FEFEFE" transform="translate(648,676)"/>
<path d="M0 0 C2.57565685 1.2748724 5.11267666 1.5032959 7.94140625 1.9609375 C12.05074696 3.35668513 15.98713298 5.17866173 19.94140625 6.9609375 C20.70469238 7.30302246 21.46797852 7.64510742 22.25439453 7.99755859 C41.02021592 16.47823114 58.27863919 26.87822472 74.94140625 38.9609375 C75.85664062 39.6209375 76.771875 40.2809375 77.71484375 40.9609375 C78.44960937 41.5384375 79.184375 42.1159375 79.94140625 42.7109375 C80.53953125 43.18015625 81.13765625 43.649375 81.75390625 44.1328125 C83.74421973 47.19684772 83.39037763 49.37866408 82.94140625 52.9609375 C81.13840531 55.79415099 78.81289846 58.01657868 76.41334534 60.35033321 C75.70760514 61.06415032 75.00186494 61.77796743 74.27473867 62.51341537 C71.89036053 64.91641689 69.48169672 67.29350592 67.07250977 69.6716156 C65.34684594 71.4003302 63.62272041 73.13058153 61.90001011 74.86223942 C58.14319254 78.63147348 54.37570594 82.38954565 50.59848404 86.13829803 C44.98198954 91.71257717 39.38565593 97.30677267 33.79331025 102.90526574 C24.38596114 112.32181648 14.96239192 121.72197524 5.5295105 131.11294365 C-3.81192691 140.41298039 -13.1461068 149.72020308 -22.47067261 159.03715706 C-23.33991204 159.90567472 -23.33991204 159.90567472 -24.22671186 160.7917382 C-27.16955339 163.73221144 -30.11226566 166.67281401 -33.05492818 169.61346639 C-53.90513109 190.4489613 -74.77152111 211.26817557 -95.64746094 232.07788086 C-115.92975965 252.29590261 -136.20470317 272.52125396 -156.46972656 292.7565918 C-157.09424193 293.38018648 -157.7187573 294.00378117 -158.36219738 294.64627267 C-164.63375456 300.90860031 -170.90516242 307.17107745 -177.17646089 313.43366416 C-189.95214325 326.1915924 -202.7288221 338.94852249 -215.50610352 351.70484924 C-216.09359789 352.29138258 -216.68109226 352.87791592 -217.28638949 353.482223 C-256.527105 392.65851964 -295.79111629 431.81146742 -335.05859375 470.9609375 C-336.65474292 467.76863916 -335.21961032 465.31257541 -334.17724609 462.01953125 C-332.22037668 456.66910349 -329.76552772 451.55033586 -327.30731201 446.41665649 C-325.70882929 443.07749601 -324.13399048 439.72716817 -322.5546875 436.37890625 C-322.24525208 435.72468185 -321.93581665 435.07045746 -321.61700439 434.39640808 C-319.32628209 429.54896178 -317.09427956 424.68006853 -314.93359375 419.7734375 C-314.6382373 419.1033667 -314.34288086 418.4332959 -314.03857422 417.74291992 C-313.41024415 416.31460948 -312.78267164 414.88596559 -312.15576172 413.45703125 C-306.18250289 399.86766805 -300.20736452 386.27775825 -293.8828125 372.84765625 C-287.49928182 359.2849243 -281.32012278 345.62972933 -275.30859375 331.8984375 C-271.67637751 323.60261942 -267.9623521 315.36388549 -264.09716797 307.17382812 C-261.77086259 302.21716804 -259.47939271 297.24427928 -257.18359375 292.2734375 C-256.66450439 291.15026123 -256.14541504 290.02708496 -255.6105957 288.86987305 C-252.46281006 282.0456472 -249.36702433 275.20057956 -246.30859375 268.3359375 C-243.43956755 261.90669904 -240.41699429 255.58853806 -237.21777344 249.31787109 C-233.68642754 242.34008409 -230.47322523 235.21840667 -227.26611328 228.08691406 C-223.77156457 220.36350246 -220.00691888 212.78952988 -216.19335938 205.2208252 C-214.14900833 201.14949658 -212.12944956 197.06585637 -210.10546875 192.984375 C-192.3213251 157.17977654 -192.3213251 157.17977654 -183.50390625 141.53515625 C-181.88079652 138.64426622 -180.28174948 135.74069353 -178.68359375 132.8359375 C-159.39672273 97.9009266 -138.06719483 61.80370827 -109.05859375 33.9609375 C-108.27484375 33.1565625 -107.49109375 32.3521875 -106.68359375 31.5234375 C-105.81734375 30.6778125 -104.95109375 29.8321875 -104.05859375 28.9609375 C-103.39859375 28.31640625 -102.73859375 27.671875 -102.05859375 27.0078125 C-77.78276877 4.16937189 -32.97314669 -16.64299244 0 0 Z " fill="#FEFEFE" transform="translate(995.05859375,137.0390625)"/>
<path d="M0 0 C0.84293972 -0.00250352 1.68587943 -0.00500704 2.55436277 -0.00758642 C3.48754009 -0.00524525 4.42071741 -0.00290409 5.38217282 -0.00049198 C6.37206991 -0.00194542 7.361967 -0.00339886 8.38186097 -0.00489634 C11.73726176 -0.00857926 15.09261777 -0.00505935 18.44801831 -0.00163448 C20.86260152 -0.0027854 23.27718455 -0.00437272 25.69176722 -0.00636172 C30.96141974 -0.00968031 36.23105875 -0.00985747 41.50071073 -0.00731456 C49.33687777 -0.00354339 57.17303612 -0.00545995 65.0092031 -0.00852287 C79.00298098 -0.01379866 92.99675429 -0.01332816 106.9905326 -0.01044396 C119.23896797 -0.00793179 131.48740165 -0.00727011 143.73583722 -0.0084666 C144.54722821 -0.00854299 145.35861919 -0.00861937 146.19459778 -0.00869807 C149.48805884 -0.00900939 152.7815199 -0.00932779 156.07498096 -0.00965784 C186.99630316 -0.0127196 217.91762245 -0.0099392 248.8389442 -0.00456094 C276.32332219 0.00018318 303.80769554 -0.00023814 331.29207349 -0.00502193 C362.14956833 -0.01037483 393.0070606 -0.0125007 423.86455584 -0.00940967 C427.1533757 -0.00908894 430.44219557 -0.0087761 433.73101544 -0.0084666 C434.54084409 -0.00838752 435.35067273 -0.00830845 436.18504163 -0.00822697 C448.42436088 -0.00708861 460.66367827 -0.00842148 472.90299726 -0.01094615 C486.82019137 -0.01380257 500.7373802 -0.01309673 514.65457365 -0.00766541 C522.44734785 -0.00472467 530.24011061 -0.00454385 538.03288452 -0.00831159 C543.84442952 -0.0108119 549.65596438 -0.00810852 555.46750823 -0.00333701 C557.82420161 -0.00221582 560.18089651 -0.00279745 562.53758892 -0.0052128 C565.73060752 -0.00823536 568.92356309 -0.00515283 572.11657834 -0.00049198 C573.04039099 -0.00283314 573.96420364 -0.00517431 574.91601062 -0.00758642 C579.3934255 0.00555531 583.59397725 0.21490501 588.00105786 1.12534916 C586.60567529 3.91611431 585.12078775 4.01665766 582.21590161 5.07847416 C581.21840894 5.44730717 580.22091626 5.81614018 579.19319654 6.19614995 C578.11916577 6.58528569 577.04513501 6.97442143 575.93855786 7.37534916 C573.72500781 8.19043056 571.51146615 9.00553474 569.29793286 9.82066166 C568.21447583 10.21672612 567.1310188 10.61279057 566.01472974 11.02085698 C562.23053966 12.40773934 558.45886426 13.82628428 554.68855786 15.25034916 C550.00354693 17.01127534 545.3103066 18.74839028 540.61092114 20.47056401 C531.98963301 23.6313976 523.39637241 26.86149519 514.81355786 30.12534916 C503.28298398 34.50931389 491.74004996 38.85930324 480.18855786 43.18784916 C479.36516919 43.49642857 478.54178052 43.80500798 477.69344068 44.12293828 C472.41919595 46.09944108 467.14467331 48.07520143 461.87007642 50.0507642 C453.55717822 53.16434302 445.24455426 56.27865239 436.93236279 59.39411747 C433.91596495 60.52447344 430.89931448 61.6541532 427.88264966 62.78379643 C417.57133825 66.64731938 407.26880175 70.53203004 396.98758435 74.47506535 C390.73751043 76.86633777 384.44669395 79.1149325 378.12605786 81.31284916 C372.57365194 83.26170687 367.0509625 85.29158198 361.5247395 87.3130933 C337.03859044 96.26889589 312.40764784 104.71236584 287.62605786 112.81284916 C286.67244367 113.12509434 285.71882947 113.43733952 284.73631787 113.75904667 C263.88923402 120.57716578 242.97665386 127.08255051 221.75105786 132.62534916 C220.86217877 132.85802495 219.97329968 133.09070073 219.05748487 133.33042729 C201.17095487 137.99007854 183.2138298 141.97341106 165.00105786 145.12534916 C163.9179231 145.31596928 162.83478833 145.5065894 161.7188313 145.70298588 C135.23583996 150.16789394 104.0300868 151.5060449 78.00105786 144.12534916 C77.23374341 143.91104252 76.46642896 143.69673588 75.67586255 143.4759351 C48.72752456 135.64118766 28.42692017 116.09206984 14.84871411 92.03550541 C14.00105786 90.12534916 14.00105786 90.12534916 14.00105786 87.12534916 C13.34105786 86.79534916 12.68105786 86.46534916 12.00105786 86.12534916 C7.68318073 78.16811844 4.7023725 69.73578958 2.00105786 61.12534916 C1.44079195 59.49957754 0.87848261 57.8745078 0.31355786 56.25034916 C-0.81453125 52.8964068 -1.4300612 49.61990347 -1.99894214 46.12534916 C-2.32894214 45.50659916 -2.65894214 44.88784916 -2.99894214 44.25034916 C-4.24936645 41.5931975 -4.476766 38.99680872 -4.78019214 36.09800541 C-5.04172922 33.73950139 -5.49207591 31.44245192 -5.99894214 29.12534916 C-6.32894214 29.12534916 -6.65894214 29.12534916 -6.99894214 29.12534916 C-7.05952807 28.46148198 -7.12011401 27.79761479 -7.18253589 27.11363041 C-7.28479288 19.60149897 -7.28479288 19.60149897 -9.99894214 13.12534916 C-10.39932768 8.96133955 -10.44078542 6.8028422 -8.12394214 3.25034916 C-5.29495997 0.42136699 -3.87103337 0.00035952 0 0 Z " fill="#FEFEFE" transform="translate(15.998942136764526,646.8746508359909)"/>
<path d="M0 0 C-39.61494289 39.76897286 -79.23526304 79.53258314 -118.88539124 119.26647949 C-119.47200928 119.85434005 -120.05862732 120.4422006 -120.66302166 121.04787511 C-133.41114149 133.82292967 -146.16026355 146.59698357 -158.91041875 159.37000671 C-165.16287779 165.63369201 -171.41511527 171.89759844 -177.66723633 178.16162109 C-178.2894089 178.7849705 -178.91158147 179.4083199 -179.55260776 180.05055868 C-199.72725464 200.26357342 -219.88722216 220.49115438 -240.0396473 240.72632229 C-260.74499815 261.51653162 -281.46503322 282.2919941 -302.20371895 303.04895386 C-305.13136201 305.9791904 -308.05883633 308.90959546 -310.98620796 311.84010315 C-311.56237491 312.4168769 -312.13854185 312.99365065 -312.7321684 313.58790239 C-322.01503556 322.88141454 -331.2822445 332.19039148 -340.54372402 341.50521232 C-349.84980293 350.8642257 -359.17210205 360.20682668 -368.51129054 369.53280294 C-374.06281901 375.0774742 -379.60138438 380.63440634 -385.12234302 386.20952091 C-389.24151182 390.36633032 -393.38381736 394.49951445 -397.53563733 398.62372738 C-399.21528313 400.29955491 -400.88727299 401.98309674 -402.55088937 403.67483801 C-404.80717729 405.9670479 -407.08925665 408.22998574 -409.380126 410.48755646 C-410.02549493 411.15656851 -410.67086385 411.82558056 -411.33578941 412.5148657 C-414.73958675 415.80725791 -416.99641817 417.40186167 -421.8246308 417.53153944 C-425.0801968 417.37435366 -425.80619064 417.1591671 -428.42578125 415.0078125 C-429.04839844 414.05648438 -429.67101562 413.10515625 -430.3125 412.125 C-430.67021484 411.59616211 -431.02792969 411.06732422 -431.39648438 410.52246094 C-432.18854165 409.34375642 -432.96670575 408.15563225 -433.73291016 406.95996094 C-435.08833591 404.86336017 -436.49713096 402.81059671 -437.91796875 400.7578125 C-442.96941956 393.40754121 -447.77196593 385.93817151 -452.1875 378.1875 C-452.56197266 377.53620117 -452.93644531 376.88490234 -453.32226562 376.21386719 C-455.19973941 372.83689875 -456.50913405 369.84633765 -457 366 C-457.66 366 -458.32 366 -459 366 C-469.7359892 341.16407833 -469.7359892 341.16407833 -471 332 C-471.41754165 329.4351013 -471.77505658 327.42254079 -472.99609375 325.12890625 C-479.41710133 311.51237267 -474.87020854 289.22136436 -470.22851562 275.74853516 C-463.43511222 257.20063023 -452.68598877 242.10804303 -439 228 C-438.46358887 227.43780762 -437.92717773 226.87561523 -437.37451172 226.29638672 C-429.14746654 217.68922972 -420.54891798 210.09966539 -411 203 C-409.84091731 202.12269768 -408.68206392 201.24509232 -407.5234375 200.3671875 C-383.69459851 182.46605089 -358.03916148 167.41356258 -332 153 C-331.03916504 152.46665039 -330.07833008 151.93330078 -329.08837891 151.38378906 C-297.1138838 133.72330329 -264.25096448 117.35657363 -231.01171875 102.21875 C-220.77047621 97.54929491 -210.62778373 92.66835047 -200.46765137 87.82571411 C-186.34180058 81.09336837 -172.16708511 74.49860672 -157.875 68.125 C-146.72255358 63.14271594 -135.60399509 58.0892614 -124.5 53 C-112.8511499 47.66212209 -101.18330034 42.37199223 -89.484375 37.14453125 C-79.55665767 32.70574815 -69.64716569 28.22730539 -59.74081421 23.74105835 C-52.65108035 20.53078113 -45.55972936 17.32407624 -38.46862793 14.11682129 C-36.09767861 13.04419036 -33.72703184 11.97089338 -31.35644531 10.89746094 C-27.90557908 9.33524511 -24.45320727 7.77640943 -20.99951172 6.22045898 C-19.17442835 5.39729361 -17.35086377 4.57076344 -15.52734375 3.74414062 C-14.44839844 3.25880859 -13.36945313 2.77347656 -12.2578125 2.2734375 C-11.3311377 1.85497559 -10.40446289 1.43651367 -9.44970703 1.00537109 C-3.8626943 -1.28756477 -3.8626943 -1.28756477 0 0 Z M-472 285 C-471 287 -471 287 -471 287 Z M-473 290 C-472 292 -472 292 -472 292 Z M-474 299 C-473 301 -473 301 -473 301 Z M-474 310 C-473 313 -473 313 -473 313 Z M-473 320 C-472 323 -472 323 -472 323 Z " fill="#FEFEFE" transform="translate(609,661)"/>
<path d="M0 0 C5.01045361 5.05297776 8.90489301 11.02633864 12.8125 16.9375 C13.42561035 17.86264404 14.0387207 18.78778809 14.67041016 19.7409668 C19.84613305 27.62703734 24.60779198 35.65501705 29 44 C29.34756348 44.65274902 29.69512695 45.30549805 30.05322266 45.97802734 C39.56097501 63.93808833 47.24921591 83.43504446 48 104 C48.03996094 105.03898437 48.07992188 106.07796875 48.12109375 107.1484375 C48.68501853 136.67155858 38.29228675 160.11482059 19 182 C18.4961377 182.57685547 17.99227539 183.15371094 17.47314453 183.74804688 C12.01848118 189.96226621 6.34571152 195.69907634 0 201 C-0.98097656 201.86882812 -1.96195313 202.73765625 -2.97265625 203.6328125 C-12.17919071 211.7652287 -21.92330605 218.98461104 -32 226 C-33.01449219 226.70640625 -34.02898437 227.4128125 -35.07421875 228.140625 C-66.04438101 249.17029295 -99.21643014 267.31229188 -132.74365234 283.88574219 C-137.97367419 286.47252263 -143.13760373 289.12597553 -148.25 291.9375 C-156.5396164 296.42419634 -165.12289688 300.28617709 -173.68261719 304.22241211 C-179.83816833 307.05511961 -185.96697246 309.91383908 -192 313 C-202.63664154 318.42220273 -213.52515439 323.32792448 -224.36621094 328.32421875 C-227.87376225 329.94096423 -231.37849 331.56376678 -234.8828125 333.1875 C-245.20563538 337.96741088 -255.54030076 342.71700029 -265.92114258 347.36962891 C-273.85565283 350.92752993 -281.77207029 354.52492063 -289.6875 358.125 C-291.10978161 358.77172917 -292.53206351 359.41845768 -293.9543457 360.06518555 C-300.4200282 363.00555551 -306.88501962 365.9474398 -313.34921265 368.89108276 C-328.00766586 375.56571751 -342.67710853 382.21317099 -357.37988281 388.78979492 C-368.59891738 393.81177219 -379.80053037 398.87206198 -391 403.9375 C-391.90064178 404.34464233 -392.80128357 404.75178467 -393.72921753 405.17126465 C-395.49006975 405.96735984 -397.25077948 406.76377027 -399.01133728 407.56051636 C-400.69150574 408.32074402 -402.37204882 409.08014437 -404.05299377 409.83865356 C-407.73984175 411.5057042 -411.41634141 413.18778492 -415.06640625 414.93408203 C-416.24074219 415.49337402 -417.41507813 416.05266602 -418.625 416.62890625 C-419.62789062 417.11560791 -420.63078125 417.60230957 -421.6640625 418.10375977 C-422.43492187 418.39951904 -423.20578125 418.69527832 -424 419 C-424.66 418.67 -425.32 418.34 -426 418 C-425.54625 417.5875 -425.0925 417.175 -424.625 416.75 C-422.93366137 415.10797321 -422.93366137 415.10797321 -422.125 413.125 C-420.57107278 410.18980414 -418.39738439 408.28587814 -416 406 C-414.7934375 404.7625 -414.7934375 404.7625 -413.5625 403.5 C-411 401 -411 401 -408.125 398.6875 C-404.9224848 396.07773826 -402.33597799 393.05019467 -399.65625 389.91796875 C-396.71888882 386.51644908 -393.62590558 383.50344579 -390.125 380.6875 C-386.9224848 378.07773826 -384.33597799 375.05019467 -381.65625 371.91796875 C-378.71888882 368.51644908 -375.62590558 365.50344579 -372.125 362.6875 C-368.9224848 360.07773826 -366.33597799 357.05019467 -363.65625 353.91796875 C-360.71888882 350.51644908 -357.62590558 347.50344579 -354.125 344.6875 C-350.9224848 342.07773826 -348.33597799 339.05019467 -345.65625 335.91796875 C-342.71888882 332.51644908 -339.62590558 329.50344579 -336.125 326.6875 C-332.9224848 324.07773826 -330.33597799 321.05019467 -327.65625 317.91796875 C-324.71888882 314.51644908 -321.62590558 311.50344579 -318.125 308.6875 C-314.9224848 306.07773826 -312.33597799 303.05019467 -309.65625 299.91796875 C-306.71888882 296.51644908 -303.62590558 293.50344579 -300.125 290.6875 C-296.9224848 288.07773826 -294.33597799 285.05019467 -291.65625 281.91796875 C-288.69919161 278.49363934 -285.57952433 275.46855158 -282.0625 272.625 C-279.13361097 270.24433892 -276.83765603 267.52518854 -274.4375 264.625 C-272.51751508 262.45458227 -270.26488225 260.80029102 -268 259 C-267.195625 258.030625 -266.39125 257.06125 -265.5625 256.0625 C-262.94572291 252.93513226 -260.12563033 250.60469194 -257 248 C-256.175 247.01 -255.35 246.02 -254.5 245 C-251.9107857 241.89294284 -249.10063514 239.58386262 -246 237 C-245.175 236.01 -244.35 235.02 -243.5 234 C-240.9107857 230.89294284 -238.10063514 228.58386262 -235 226 C-233.32932867 224.00334402 -231.66247014 222.00348966 -230 220 C-229.195625 219.360625 -228.39125 218.72125 -227.5625 218.0625 C-225.35854675 216.28858641 -223.79007843 214.65633489 -222 212.5 C-220.24825533 210.39166609 -218.72516057 208.78153789 -216.5625 207.0625 C-213.54611674 204.63467932 -211.20568113 201.88554063 -208.69140625 198.953125 C-205.73829102 195.54306123 -202.63931537 192.51423193 -199.125 189.6875 C-195.9224848 187.07773826 -193.33597799 184.05019467 -190.65625 180.91796875 C-187.69919161 177.49363934 -184.57952433 174.46855158 -181.0625 171.625 C-178.13361097 169.24433892 -175.83765603 166.52518854 -173.4375 163.625 C-171.51751508 161.45458227 -169.26488225 159.80029102 -167 158 C-166.195625 157.030625 -165.39125 156.06125 -164.5625 155.0625 C-161.94572291 151.93513226 -159.12563033 149.60469194 -156 147 C-155.175 146.01 -154.35 145.02 -153.5 144 C-150.9107857 140.89294284 -148.10063514 138.58386262 -145 136 C-144.175 135.01 -143.35 134.02 -142.5 133 C-139.9107857 129.89294284 -137.10063514 127.58386262 -134 125 C-132.32932867 123.00334402 -130.66247014 121.00348966 -129 119 C-128.195625 118.360625 -127.39125 117.72125 -126.5625 117.0625 C-124.35854675 115.28858641 -122.79007843 113.65633489 -121 111.5 C-118.57334611 108.57684404 -115.97799546 106.36712459 -113 104 C-112.195625 103.030625 -111.39125 102.06125 -110.5625 101.0625 C-107.94572291 97.93513226 -105.12563033 95.60469194 -102 93 C-100.7625 91.515 -100.7625 91.515 -99.5 90 C-96.9107857 86.89294284 -94.10063514 84.58386262 -91 82 C-89.7625 80.515 -89.7625 80.515 -88.5 79 C-85.9107857 75.89294284 -83.10063514 73.58386262 -80 71 C-78.7625 69.515 -78.7625 69.515 -77.5 68 C-74.9107857 64.89294284 -72.10063514 62.58386262 -69 60 C-67.32932867 58.00334402 -65.66247014 56.00348966 -64 54 C-62.33333333 52.66666667 -60.66666667 51.33333333 -59 50 C-58.195625 49.030625 -57.39125 48.06125 -56.5625 47.0625 C-53.94572291 43.93513226 -51.12563033 41.60469194 -48 39 C-47.175 38.01 -46.35 37.02 -45.5 36 C-42.9107857 32.89294284 -40.10063514 30.58386262 -37 28 C-35.7625 26.515 -35.7625 26.515 -34.5 25 C-31.9107857 21.89294284 -29.10063514 19.58386262 -26 17 C-24.7625 15.515 -24.7625 15.515 -23.5 14 C-20.9107857 10.89294284 -18.10063514 8.58386262 -15 6 C-14.1254699 4.95419694 -13.27084538 3.89140797 -12.4375 2.8125 C-8.51914276 -1.70868143 -5.3211669 -3.24461397 0 0 Z " fill="#FEFEFE" transform="translate(1096,201)"/>
<path d="M0 0 C0.639375 -0.04898437 1.27875 -0.09796875 1.9375 -0.1484375 C5.4429678 0.74120774 6.79490067 2.55420016 9 5.375 C9.73960536 8.65907504 9.67215881 11.88074833 9.63085651 15.23572254 C9.64204291 16.74365221 9.64204291 16.74365221 9.65345529 18.2820451 C9.67246061 21.67202662 9.6556715 25.06090021 9.63923645 28.45088196 C9.64554401 30.89708548 9.65404432 33.34328417 9.66455668 35.78947324 C9.6824127 41.11885056 9.68470205 46.44790025 9.67340279 51.77727127 C9.65668509 59.70179601 9.66854699 67.62609688 9.68631649 75.55061011 C9.71539426 88.88030511 9.72121747 102.20991597 9.71384621 115.53963661 C9.70662217 128.7401614 9.70969784 141.9406174 9.72656822 155.14113426 C9.72761087 155.96150786 9.72865352 156.78188145 9.72972776 157.62711485 C9.73507642 161.79327685 9.74060947 165.95943858 9.74621352 170.12560024 C9.7855884 199.64436303 9.80181129 229.16309776 9.80444336 258.68188477 C9.8070535 287.36126289 9.82013529 316.04060496 9.84741211 344.7199707 C9.84824853 345.60379417 9.84908496 346.48761764 9.84994673 347.39822364 C9.85835793 356.27383849 9.86698222 365.14945312 9.87576263 374.02506761 C9.89364494 392.10616274 9.9101049 410.18725908 9.92570496 428.26835632 C9.926424 429.09971932 9.92714303 429.93108231 9.92788386 430.78763812 C9.97574748 486.31674667 9.99034963 541.84587329 10 597.375 C9.34 597.705 8.68 598.035 8 598.375 C5.95115995 593.41404459 3.90639785 588.45145053 1.86767578 583.48632812 C1.15215234 581.74523451 0.43386994 580.00527499 -0.28515625 578.265625 C-2.15712656 573.68178897 -3.65011841 569.14458163 -5 564.375 C-5.6863658 562.7734798 -6.37495084 561.17277414 -7.0859375 559.58203125 C-8.3230783 556.59491778 -9.36904356 553.55132805 -10.4375 550.5 C-12.14585327 545.64765924 -14.01778052 540.9718922 -16.171875 536.3046875 C-17 534.375 -17 534.375 -17.9375 531.0625 C-19.49883144 525.64376146 -21.79613738 520.55938767 -24 515.375 C-26.06670569 510.44838115 -27.98695044 505.58330431 -29.4375 500.4375 C-30.47093843 496.84001705 -31.76966553 493.56820437 -33.375 490.1875 C-35.73020141 485.19419011 -37.50331142 480.0911349 -39.19702148 474.84838867 C-40.59653946 470.53142665 -42.17385444 466.34752958 -43.90625 462.15625 C-45.35476932 458.47287231 -46.6402502 454.73884318 -47.9375 451 C-50.03357443 444.96876163 -52.33058035 439.08143402 -54.84765625 433.2109375 C-56.45044384 429.26645008 -57.72502848 425.23393387 -59.03125 421.18359375 C-59.91541277 418.62023476 -60.92219424 416.20770446 -62.0625 413.75 C-63.86405487 409.86649261 -65.05116393 405.95568355 -66.21875 401.84375 C-66.98770994 399.41383659 -67.92652545 397.18459676 -69 394.875 C-70.81707893 390.95864428 -72.04363446 387.03111871 -73.23046875 382.88671875 C-74.23839449 379.59689007 -75.52164324 376.45812433 -76.828125 373.27734375 C-80.25266977 364.79588788 -83.48079774 356.209527 -86.2890625 347.50390625 C-87.13235917 344.97864975 -88.06712728 342.49350565 -89 340 C-90.36138356 336.30260601 -91.5103704 332.62580101 -92.5 328.8125 C-93.68400937 324.27056243 -95.28132887 320.05577619 -97.08984375 315.73046875 C-97.9530894 313.49640382 -98.57823487 311.32913335 -99.125 309 C-99.84951265 305.99844759 -100.63431787 304.05998261 -102 301.375 C-102.50625533 299.98876159 -102.98465312 298.59209286 -103.4375 297.1875 C-104.57036124 293.69072398 -104.57036124 293.69072398 -105.75390625 290.2109375 C-107.5742014 284.96924988 -108.93843958 279.68266235 -110.25 274.29296875 C-111.29120913 270.24201447 -112.61399403 266.31868709 -114 262.375 C-115.75713887 257.35460322 -117.14338996 252.63703307 -118 247.375 C-118.6492959 246.03312182 -119.31731862 244.70020503 -120 243.375 C-122.06214041 236.9308112 -123.27107231 230.32957623 -124.49609375 223.68359375 C-124.8833267 221.38275016 -124.8833267 221.38275016 -126 219.5625 C-127.24738722 216.83384045 -127.42408792 214.34667464 -127.65625 211.375 C-127.90951151 209.31339244 -127.90951151 209.31339244 -129 207.40234375 C-130.11647903 205.13885696 -130.32630232 203.44308904 -130.5 200.9375 C-130.74864591 197.36321503 -131.6532893 194.68608572 -133 191.375 C-134.32541055 185.75427747 -135.31308324 180.1670399 -135 174.375 C-135.33 174.375 -135.66 174.375 -136 174.375 C-138.96575211 159.61685259 -139.33372945 145.00059499 -139.375 130 C-139.38249268 129.05491577 -139.38998535 128.10983154 -139.39770508 127.1361084 C-139.59776721 96.31720463 -131.45867342 66.79238463 -109.4375 44.25 C-82.89082455 18.17060834 -44.48695502 8.20507172 -9 1.375 C-8.10071777 1.19308105 -7.20143555 1.01116211 -6.27490234 0.82373047 C-4.16076088 0.40671051 -2.15083732 0.1127455 0 0 Z M-132 81.375 C-131 83.375 -131 83.375 -131 83.375 Z M-136 95.375 C-135 98.375 -135 98.375 -135 98.375 Z M-138 108.375 C-137 111.375 -137 111.375 -137 111.375 Z M-138 148.375 C-137 152.375 -137 152.375 -137 152.375 Z M-136 166.375 C-135 169.375 -135 169.375 -135 169.375 Z M-132 189.375 C-131 191.375 -131 191.375 -131 191.375 Z " fill="#FEFEFE" transform="translate(622,5.625)"/>
<path d="M0 0 C0.74045563 0.00310181 1.48091125 0.00620361 2.24380493 0.00939941 C14.00756211 0.06693859 25.60356512 0.50746899 37.25 2.25 C38.09868652 2.37358887 38.94737305 2.49717773 39.82177734 2.62451172 C56.83951855 5.17300264 73.54465196 9.18017841 90.25 13.25 C90.99290283 13.42635986 91.73580566 13.60271973 92.5012207 13.78442383 C94.25 14.25 94.25 14.25 96.375 15.1875 C98.94781605 16.13832332 101.25311012 16.68338922 103.9375 17.1875 C109.173205 18.1803448 114.17159474 19.65212171 119.25 21.25 C124.0191533 22.71408657 128.76940152 24.16154332 133.625 25.3125 C137.25 26.25 137.25 26.25 139.15625 27.21875 C141.52812815 28.38698849 143.81575444 29.02716988 146.375 29.6875 C153.44819764 31.56617135 160.41839993 33.44199792 167.1875 36.25 C171.56297361 38.0577074 175.95348567 39.28573225 180.53125 40.46875 C184.04756233 41.47918458 187.34369922 42.87081869 190.71484375 44.28125 C193.38626554 45.30207065 196.04283496 46.04121228 198.8125 46.75 C203.13512132 47.86708191 206.97585268 49.38723329 211.0078125 51.28125 C214.16395468 52.64487938 217.41231152 53.52954454 220.71484375 54.46875 C223.29751798 55.26464345 225.75288277 56.21832715 228.25 57.25 C232.40332801 58.96210857 236.57950491 60.29113729 240.890625 61.54296875 C246.46577618 63.21366803 251.77565827 65.47107125 257.125 67.75 C261.65789872 69.6600894 266.15857344 71.16916666 270.88671875 72.50390625 C273.27914066 73.25919978 275.47556973 74.19444129 277.75 75.25 C281.61767387 77.0440004 285.49028673 78.31100199 289.59765625 79.44140625 C293.21411072 80.54391888 296.71936222 81.90121235 300.25 83.25 C302.10992794 83.94747298 303.96985591 84.64494588 305.82983398 85.34228516 C307.15760331 85.84030416 308.48523092 86.33870108 309.81274414 86.83740234 C313.38121421 88.1773692 316.95175369 89.51117008 320.52734375 90.83203125 C332.14386628 95.13514821 332.14386628 95.13514821 337.125 97.4375 C339.94707751 98.73512817 342.69741036 99.72264403 345.6875 100.5625 C355.43809728 103.34401835 365.04887074 107.25206332 374.25 111.5 C377.98698585 113.21915918 381.78889374 114.34948029 385.73828125 115.48046875 C389.03093973 116.48926147 392.17225588 117.77365557 395.35546875 119.08203125 C398.94477682 120.53034854 402.56240005 121.89423716 406.1875 123.25 C406.88093506 123.50942383 407.57437012 123.76884766 408.28881836 124.03613281 C412.16447331 125.48202036 416.04679063 126.90752162 419.9375 128.3125 C427.74882723 131.14337197 435.56610163 133.97943255 443.125 137.4375 C445.66489155 138.59701571 447.91104476 139.43362354 450.625 140.1875 C454.90225562 141.44117837 458.77022393 143.23368082 462.796875 145.12890625 C465.30290139 146.32691769 465.30290139 146.32691769 468.25 147.25 C467.92 147.91 467.59 148.57 467.25 149.25 C410.85288126 149.20598199 354.45576626 149.15840047 298.05867004 149.09101868 C297.22451959 149.09002311 296.39036914 149.08902754 295.5309414 149.08800181 C277.40439074 149.06634534 259.27784096 149.0440228 241.15129198 149.02101372 C232.26256395 149.0097348 223.37383573 148.99860313 214.48510742 148.98754883 C213.60055282 148.98644626 212.71599823 148.9853437 211.80463895 148.98420772 C183.11254145 148.94851311 154.42044514 148.92254954 125.72833341 148.90161031 C96.25352999 148.88004866 66.77875284 148.84871362 37.30397354 148.80500887 C33.14477576 148.79884625 28.98557782 148.79279584 24.82637978 148.78681374 C24.00775696 148.78563285 23.18913414 148.78445197 22.34570458 148.78323531 C9.14638563 148.76448396 -4.05292073 148.75609367 -17.25225137 148.75153876 C-30.50886304 148.74674439 -43.76542648 148.73112799 -57.02201227 148.70433434 C-64.90652313 148.68873095 -72.79093894 148.68155555 -80.6754644 148.68623071 C-86.55007509 148.68880303 -92.42458316 148.67589083 -98.29916569 148.65676448 C-100.68546926 148.6514598 -103.07179052 148.65129974 -105.4580941 148.65660437 C-108.68406303 148.66304904 -111.90945278 148.65132471 -115.13537312 148.63476086 C-116.07726458 148.64103755 -117.01915604 148.64731425 -117.98958966 148.65378115 C-118.84491452 148.64560585 -119.70023939 148.63743055 -120.58148319 148.62900752 C-121.31973948 148.62822762 -122.05799577 148.62744771 -122.81862347 148.62664418 C-125.30457735 148.14185002 -126.21727812 147.23017745 -127.75 145.25 C-127.75 144.59 -127.75 143.93 -127.75 143.25 C-128.41 143.25 -129.07 143.25 -129.75 143.25 C-130.04484537 137.00621578 -128.94105872 131.34021932 -127.625 125.25 C-127.40199219 124.20416748 -127.17898437 123.15833496 -126.94921875 122.08081055 C-123.57088275 106.52016695 -120.08058081 90.91029241 -113.75 76.25 C-113.2205457 74.96908387 -112.69195022 73.68781254 -112.1640625 72.40625 C-105.95689792 57.54797252 -98.19604488 44.51239735 -87.75 32.25 C-87.10546875 31.48945312 -86.4609375 30.72890625 -85.796875 29.9453125 C-64.06584131 6.41910647 -30.55765332 -0.23009174 0 0 Z M26.25 2.25 C26.25 2.58 26.25 2.91 26.25 3.25 C27.9 3.25 29.55 3.25 31.25 3.25 C31.25 2.92 31.25 2.59 31.25 2.25 C29.6 2.25 27.95 2.25 26.25 2.25 Z M-121.75 103.25 C-120.75 105.25 -120.75 105.25 -120.75 105.25 Z M-124.75 115.25 C-123.75 117.25 -123.75 117.25 -123.75 117.25 Z M-125.75 120.25 C-124.75 122.25 -124.75 122.25 -124.75 122.25 Z M-128.75 136.25 C-127.75 139.25 -127.75 139.25 -127.75 139.25 Z " fill="#FEFEFE" transform="translate(135.75,483.75)"/>
<path d="M0 0 C4.98580001 4.18146586 9.68075115 8.53440118 14.27728081 13.13747311 C14.97897971 13.83622058 15.6806786 14.53496806 16.4036411 15.2548897 C18.75084391 17.59344063 21.09451647 19.93549701 23.4382019 22.27757263 C25.13862103 23.97325818 26.83924871 25.6687346 28.54006684 27.36401993 C32.72122547 31.53275279 36.90004933 35.70381736 41.07785523 39.87590953 C46.08373626 44.87471324 51.09245251 49.87067259 56.10114943 54.86665454 C68.77575635 67.50946803 81.44440894 80.15824191 94.11193246 92.80815205 C97.54232142 96.23377022 100.97282894 99.65926965 104.40334558 103.08475995 C125.70079173 124.35117026 146.99602725 145.61979279 168.28634453 166.89334011 C173.2146238 171.81768227 178.14294044 176.74198702 183.07128906 181.66625977 C183.68355845 182.27802748 184.29582783 182.8897952 184.92665083 183.52010133 C204.79772802 203.37474418 224.6797999 223.21833092 244.56806851 243.05575211 C265.01684935 263.45234754 285.45592675 283.85861368 305.88226633 304.27768438 C308.76505108 307.15944052 311.64793965 310.04109277 314.5308876 312.92268562 C315.09826953 313.48980951 315.66565145 314.05693339 316.25022676 314.64124285 C325.39031272 323.77662942 334.54048444 332.90184928 343.69436466 342.02341125 C352.88694321 351.184006 362.06850571 360.35552536 371.2388752 369.53835373 C376.69034509 374.99657496 382.15004996 380.44624782 387.62179429 385.88414582 C391.70093604 389.93988612 395.76436373 394.01106829 399.82174625 398.0885656 C401.46972444 399.73978739 403.12284259 401.38589771 404.78143524 403.02645736 C407.02761091 405.24967512 409.25467279 407.49042201 411.47776604 409.73668575 C412.13252407 410.37596755 412.7872821 411.01524934 413.46188128 411.67390332 C417.28060015 415.58161504 419.03787634 418.27803136 419 424 C415.44665398 429.87903387 409.80507941 433.14434795 404.125 436.8125 C402.71226807 437.73542847 402.71226807 437.73542847 401.27099609 438.67700195 C398.52186467 440.46391395 395.7627387 442.23422244 393 444 C392.31550781 444.44311523 391.63101562 444.88623047 390.92578125 445.34277344 C374.33835497 456.03264464 356.0632864 464.81339569 337 470 C335.7728125 470.33773438 334.545625 470.67546875 333.28125 471.0234375 C316.50752357 474.8644799 296.48553403 475.24828298 280 470 C278.86175781 469.6596875 277.72351563 469.319375 276.55078125 468.96875 C260.61979605 463.78110246 248.53208868 454.76109938 236 444 C234.6078125 442.82244141 234.6078125 442.82244141 233.1875 441.62109375 C222.27603095 432.12601732 213.04560488 421.14700113 204.29394531 409.67919922 C203.08879038 408.11522645 201.85406852 406.57416066 200.6171875 405.03515625 C145 335.1924505 145 335.1924505 145 311 C144.34 311 143.68 311 143 311 C141.67997444 308.44113496 140.36886218 305.87832932 139.0625 303.3125 C138.68931641 302.59126953 138.31613281 301.87003906 137.93164062 301.12695312 C136.06034761 297.43494258 134.51730444 294.16306904 134 290 C133.34 290 132.68 290 132 290 C130.74335022 287.09399739 130 285.20395416 130 282 C129.34 282 128.68 282 128 282 C126.24788288 278.35518051 124.49869915 274.70896043 122.75 271.0625 C122.25886719 270.04091797 121.76773438 269.01933594 121.26171875 267.96679688 C119.02643058 263.30249557 116.80051528 258.63335502 114.640625 253.93359375 C114.32125977 253.24193115 114.00189453 252.55026855 113.67285156 251.83764648 C113 250 113 250 113 247 C112.34 246.67 111.68 246.34 111 246 C109.56566056 243.45690738 108.23129585 240.92555101 106.9375 238.3125 C106.57333984 237.60416016 106.20917969 236.89582031 105.83398438 236.16601562 C103.80593986 232.10617789 102.46850692 228.57695226 102 224 C101.34 224 100.68 224 100 224 C99.15733289 222.25447527 98.32619962 220.5033792 97.5 218.75 C97.0359375 217.77546875 96.571875 216.8009375 96.09375 215.796875 C95 213 95 213 95 209 C94.34 209 93.68 209 93 209 C91.9932996 206.73192796 90.99448234 204.46092246 90 202.1875 C89.71382812 201.54490234 89.42765625 200.90230469 89.1328125 200.24023438 C87.86288959 197.32243531 87 195.21734286 87 192 C86.34 192 85.68 192 85 192 C83.84552129 189.46195542 82.70131573 186.92006371 81.5625 184.375 C81.23701172 183.66214844 80.91152344 182.94929687 80.57617188 182.21484375 C78.76228896 178.13828214 77.50194256 174.48213493 77 170 C76.34 170 75.68 170 75 170 C73.67580956 167.1302458 72.3678135 164.25338361 71.0625 161.375 C70.68931641 160.56675781 70.31613281 159.75851562 69.93164062 158.92578125 C67.98455105 154.61060977 66.48580856 150.76555065 66 146 C65.34 146 64.68 146 64 146 C63.36384766 144.40285156 63.36384766 144.40285156 62.71484375 142.7734375 C59.40091723 134.54065491 55.87008566 126.56877402 51.82421875 118.66796875 C47.28977773 109.6908168 43.35235441 100.37434159 39.5625 91.0625 C37.11799601 85.1188398 34.34892259 79.34510998 31.57836914 73.54882812 C27.62954384 65.26968771 23.87373726 56.90877088 20.13378906 48.53369141 C18.98746296 45.97198333 17.83469911 43.41327153 16.6796875 40.85546875 C12.04927269 30.60059395 7.47285523 20.3246477 3 10 C2.71608398 9.37432129 2.43216797 8.74864258 2.13964844 8.10400391 C0.84787694 5.21753672 0 3.20107469 0 0 Z " fill="#FEFEFE" transform="translate(660,670)"/>
<path d="M0 0 C4.37460826 0.5748254 7.948168 1.6649499 11.96484375 3.4765625 C13.08648926 3.97873291 14.20813477 4.48090332 15.36376953 4.99829102 C16.54310059 5.53510498 17.72243164 6.07191895 18.9375 6.625 C20.17017593 7.18012653 21.40308765 7.73472976 22.63623047 8.28881836 C29.79251901 11.51142478 36.9111737 14.80851044 44.0078125 18.16015625 C50.55212707 21.2096468 57.19175642 24.05198674 63.80541992 26.94677734 C70.71878283 29.97885321 77.57701241 33.10007689 84.40234375 36.32421875 C89.34015379 38.62424102 94.32294141 40.81806942 99.3059082 43.01806641 C104.1066405 45.14315767 108.87606002 47.32425458 113.625 49.5625 C120.15384719 52.63763084 126.74756999 55.54815313 133.3671875 58.421875 C137.58960618 60.25613 141.79629578 62.12334633 146 64 C146 64.66 146 65.32 146 66 C146.87188965 66.11375977 147.7437793 66.22751953 148.64208984 66.34472656 C152.02474823 67.00482945 154.62016308 68.01196557 157.7265625 69.484375 C158.82597168 70.00056396 159.92538086 70.51675293 161.05810547 71.04858398 C162.23518066 71.61005127 163.41225586 72.17151855 164.625 72.75 C165.87479396 73.33940571 167.12496409 73.92801434 168.37548828 74.51586914 C170.96988264 75.73619629 173.56263203 76.95992258 176.15429688 78.18603516 C182.04578669 80.96964763 187.9618073 83.70038713 193.875 86.4375 C201.29233546 89.87827121 208.7057447 93.32725693 216.11328125 96.7890625 C216.7897168 97.10510941 217.46615234 97.42115631 218.16308594 97.7467804 C221.43137891 99.2739397 224.69922703 100.80203793 227.96630859 102.33178711 C234.28412604 105.28542067 240.61478195 108.19489347 247 111 C247 111.66 247 112.32 247 113 C248.32557671 113.17505821 248.32557671 113.17505821 249.67793274 113.35365295 C252.90147289 113.9808304 255.23493026 114.87244714 258.15307617 116.34155273 C259.13237595 116.82973984 260.11167572 117.31792694 261.12065125 117.82090759 C262.16751602 118.35309402 263.2143808 118.88528046 264.29296875 119.43359375 C265.3936116 119.98555923 266.49425446 120.53752472 267.62825012 121.10621643 C271.15180589 122.87585901 274.66956701 124.6567107 278.1875 126.4375 C280.50420912 127.60160462 282.82126322 128.76502295 285.13867188 129.92773438 C298.16791609 136.47757066 311.12734084 143.14755582 324 150 C324 150.66 324 151.32 324 152 C324.99580078 152.12181641 324.99580078 152.12181641 326.01171875 152.24609375 C329.98331482 153.24807812 333.24584559 155.08633454 336.8125 157.0625 C337.85180664 157.62807617 337.85180664 157.62807617 338.91210938 158.20507812 C340.61128985 159.13083852 342.30609425 160.06462312 344 161 C344 161.66 344 162.32 344 163 C344.70125 163.09152344 345.4025 163.18304687 346.125 163.27734375 C349.59349987 164.14918135 351.98675988 165.63779288 355 167.5625 C356.1547681 168.29325298 357.30972128 169.02371357 358.46484375 169.75390625 C359.05120605 170.12789551 359.63756836 170.50188477 360.24169922 170.88720703 C362.99279005 172.62831672 365.78027268 174.30923611 368.5625 176 C392.92007953 191.01614222 415.76762082 207.73493523 436 228 C436.75539063 228.70898438 437.51078125 229.41796875 438.2890625 230.1484375 C458.61276881 249.52053214 472.58502016 275.68985492 473.28808594 304.06079102 C473.67502285 344.70077506 453.2246072 382.46955889 429 414 C428.3915625 414.8146875 427.783125 415.629375 427.15625 416.46875 C424.50505989 418.35147921 422.38162328 418.52810241 419.16696739 418.44972949 C414.93762752 417.57197799 412.42006794 414.50055924 409.50317383 411.49034977 C408.78989125 410.78659754 408.07660867 410.08284531 407.34171146 409.35776725 C404.94409782 406.98242339 402.57619751 404.57949056 400.20703125 402.17579651 C398.48178929 400.45475736 396.75479295 398.73547537 395.02619267 397.01780933 C391.26566195 393.27300205 387.51791814 389.51604881 383.7808094 385.74791145 C378.22383716 380.14492897 372.64412051 374.56501967 367.05950347 368.98960775 C357.66607831 359.61034615 348.29146256 350.21249431 338.92745972 340.80386543 C329.65430329 331.48660904 320.37315029 322.1774422 311.08108521 312.87904167 C310.50352852 312.30108019 309.92597182 311.72311871 309.33091342 311.12764324 C306.39779534 308.19254636 303.46453871 305.25758799 300.53123224 302.32267939 C279.74953758 281.52906641 258.98683263 260.71658566 238.23486328 239.89331055 C218.07464716 219.6638798 197.9046419 199.44428605 177.72216797 179.23706055 C177.10019886 178.61432229 176.47822976 177.99158404 175.8374131 177.34997493 C170.21218863 171.71780622 164.5868775 166.08572407 158.96148407 160.45372412 C136.28134519 137.74675389 113.60824053 115.03275949 90.9375 92.31640625 C90.36087647 91.73863135 89.78425295 91.16085646 89.19015598 90.56557323 C75.22678407 76.57428689 61.26541008 62.58101486 47.31109148 48.58069844 C46.28174771 47.54796708 45.25240219 46.51523746 44.22305489 45.48250961 C43.71857244 44.97636905 43.21409 44.47022848 42.69432021 43.94875033 C39.18322594 40.42636717 35.67084816 36.90526726 32.15788078 33.38475227 C27.54093542 28.75785806 22.92652139 24.12845119 18.31397438 19.49717151 C16.63675888 17.81393334 14.95869216 16.13154288 13.27973175 14.45004518 C11.0142108 12.18081378 8.75174389 9.90858293 6.49009705 7.63549137 C5.49000914 6.63591382 5.49000914 6.63591382 4.46971744 5.61614278 C0 1.11418213 0 1.11418213 0 0 Z " fill="#FEFEFE" transform="translate(672,659)"/>
<path d="M0 0 C0.82854492 0.00080566 1.65708984 0.00161133 2.51074219 0.00244141 C8.72506232 0.06441449 14.58634106 0.65370208 20.625 2.1875 C21.759375 2.455625 22.89375 2.72375 24.0625 3 C39.89000027 8.27583342 54.1752426 16.06259941 66.625 27.1875 C67.41777344 27.87199219 68.21054687 28.55648437 69.02734375 29.26171875 C80.1255659 38.99289895 90.67899997 49.4303183 99.625 61.1875 C100.12435059 61.84282715 100.62370117 62.4981543 101.13818359 63.17333984 C120.52790011 88.74213392 137.39506626 115.95924086 152.625 144.1875 C153.47578125 145.7638623 153.47578125 145.7638623 154.34375 147.37207031 C158.21082589 154.54831583 162.05644753 161.73575277 165.88867188 168.93066406 C167.39489593 171.7558931 168.90723049 174.57771881 170.421875 177.3984375 C176.8795943 189.47790505 182.78994831 201.79726161 188.625 214.1875 C190.18645891 217.50049232 191.74872624 220.81309965 193.3125 224.125 C193.86719971 225.30098755 193.86719971 225.30098755 194.43310547 226.50073242 C196.65929483 231.20305015 198.95699263 235.86139575 201.3125 240.5 C211.17857791 259.99604021 220.06800541 280.03257359 229.13085938 299.91064453 C230.18592501 302.22454828 231.24183461 304.53805177 232.29882812 306.85107422 C239.97748266 323.65683647 247.55661236 340.50303369 255.03414917 357.39926147 C259.0447536 366.45625678 263.11102121 375.47238965 267.40917969 384.39746094 C271.02252769 391.93406708 274.38018573 399.58135667 277.75830078 407.22558594 C281.55066999 415.79684077 285.39871001 424.34108824 289.28143311 432.87173462 C290.24271418 434.98399062 291.20274297 437.09681229 292.16259766 439.2097168 C295.03041768 445.51803959 297.91211692 451.81892731 300.8359375 458.1015625 C301.31208496 459.13047607 301.78823242 460.15938965 302.27880859 461.21948242 C303.15267184 463.10556268 304.0328475 464.98873583 304.92041016 466.8684082 C305.2972998 467.68398193 305.67418945 468.49955566 306.0625 469.33984375 C306.39121094 470.04101318 306.71992187 470.74218262 307.05859375 471.46459961 C307.625 473.1875 307.625 473.1875 306.625 475.1875 C266.66984777 435.33502271 226.71826564 395.47896883 186.78649902 355.60305786 C186.19581899 355.01320617 185.60513896 354.42335449 184.99655954 353.8156285 C172.16057551 340.99760049 159.3252585 328.17890477 146.49062875 315.35952073 C140.19683885 309.07321507 133.90290152 302.78705704 127.60888672 296.50097656 C126.98254763 295.87542203 126.35620854 295.24986749 125.71088948 294.60535676 C105.3967954 274.31684645 85.07297843 254.03810902 64.74411502 233.76439834 C43.8596086 212.93644958 22.98491342 192.09871727 2.12257394 171.24856388 C-0.82176604 168.30595291 -3.76621838 165.3634544 -6.71073914 162.42102432 C-7.29027919 161.84188881 -7.86981924 161.2627533 -8.46692111 160.66606822 C-17.80914254 151.33094659 -27.1616983 142.00624468 -36.51812701 132.68536519 C-45.91643933 123.32232155 -55.30385523 113.94846643 -64.68014252 104.56336574 C-70.25618706 98.98274581 -75.84050622 93.41071063 -81.43684475 87.85044051 C-85.60721888 83.70512184 -89.761946 79.54437272 -93.91059178 75.37730159 C-95.59711581 73.68822803 -97.28879508 72.0042841 -98.98592836 70.32587074 C-101.28175989 68.05391053 -103.55856016 65.7644686 -105.83132172 63.46946526 C-106.50354246 62.8130066 -107.1757632 62.15654794 -107.86835426 61.4801966 C-112.24970844 57.0004792 -112.24970844 57.0004792 -112.88261271 52.89375412 C-111.96242624 47.98793045 -109.15613232 45.7713866 -105.265625 42.86328125 C-104.05818658 42.06619763 -102.8442386 41.27891404 -101.625 40.5 C-100.96161621 40.06921143 -100.29823242 39.63842285 -99.61474609 39.19458008 C-98.22270731 38.29389725 -96.82797002 37.39737235 -95.43066406 36.50488281 C-93.51356409 35.27629951 -91.61131454 34.02766577 -89.7109375 32.7734375 C-62.84577208 15.26853334 -32.69702136 -0.03345991 0 0 Z " fill="#FEFEFE" transform="translate(312.375,133.8125)"/>
<path d="M0 0 C0.66 0 1.32 0 2 0 C1.97309337 56.4924557 1.94143338 112.98490745 1.88336182 169.4773407 C1.88250431 170.31290089 1.8816468 171.14846108 1.8807633 172.00934128 C1.86209946 190.16652528 1.84254714 208.32370823 1.82207905 226.48089029 C1.81204751 235.38463957 1.80221238 244.28838906 1.79248047 253.19213867 C1.79150866 254.07818811 1.79053686 254.96423755 1.7895356 255.87713697 C1.75810544 284.61773903 1.7396555 313.35833167 1.72790753 342.09894794 C1.71577076 371.62357466 1.6905973 401.14816205 1.64892386 430.67276256 C1.64304942 434.8389876 1.63732464 439.00521284 1.63169098 443.17143822 C1.63057752 443.99144418 1.62946406 444.81145015 1.62831686 445.65630478 C1.61074909 458.8779461 1.60700194 472.09955729 1.60837079 485.32120871 C1.60945253 498.60023549 1.59609882 511.87918473 1.56783572 525.15818206 C1.55146929 533.05605163 1.54634507 540.95374604 1.55702825 548.85162632 C1.56377284 554.73618497 1.54986274 560.62057296 1.52766338 566.50509789 C1.52193337 568.89543849 1.52306586 571.28580664 1.53148755 573.67613927 C1.54190399 576.90770614 1.52808461 580.13825792 1.50780869 583.36975574 C1.51671239 584.31325155 1.5256161 585.25674736 1.53478962 586.22883394 C1.45866805 592.48618276 1.45866805 592.48618276 -0.86798072 595.0925824 C-8.03281934 598.14203918 -18.87607281 594.4503958 -26.25 592.875 C-27.78430664 592.5500354 -27.78430664 592.5500354 -29.34960938 592.21850586 C-67.32264896 583.91697773 -105.89719779 570.32128357 -129.08203125 537.09765625 C-134.18246976 528.86008449 -138.49150229 520.36894725 -141 511 C-141.350625 510.360625 -141.70125 509.72125 -142.0625 509.0625 C-143.24508237 506.46081878 -143.43133542 503.9259571 -143.65625 501.09765625 C-143.92998106 498.91124904 -143.92998106 498.91124904 -144.9831543 496.67602539 C-162.93009061 449.44520451 -134.13527675 373.50729614 -120.02636719 328.29833984 C-119.28540416 325.91717656 -118.54885084 323.5349528 -117.81738281 321.15087891 C-111.70505885 301.23333031 -105.14594314 281.52764169 -98.11038208 261.91767883 C-95.78417057 255.42402755 -93.54651687 248.90087565 -91.3125 242.375 C-88.08901347 232.99283151 -84.6812217 223.69195584 -81.16772461 214.41479492 C-79.00265135 208.69448361 -76.89131201 202.96191788 -74.875 197.1875 C-69.60560525 182.11495475 -63.94636432 167.19169487 -58.26782227 152.26928711 C-55.04814846 143.8009162 -51.88355897 135.31314412 -48.75 126.8125 C-45.79941535 118.81021737 -42.79484825 110.83613003 -39.67382812 102.89892578 C-37.11427375 96.35964857 -34.67944308 89.77605933 -32.25 83.1875 C-25.21955151 64.12411666 -17.96540043 45.1459085 -10.72412109 26.16186523 C-7.78584322 18.45254519 -4.88607431 10.72899447 -2 3 C-1.34 3 -0.68 3 0 3 C0 2.01 0 1.02 0 0 Z M-119 327 C-118 329 -118 329 -118 329 Z M-127 354 C-126 356 -126 356 -126 356 Z M-134 381 C-133 383 -133 383 -133 383 Z M-138 398 C-137 400 -137 400 -137 400 Z M-140 408 C-139 410 -139 410 -139 410 Z M-141 413 C-140 416 -140 416 -140 416 Z M-144 432 C-143 435 -143 435 -143 435 Z M-145 439 C-145 440.65 -145 442.3 -145 444 C-144.67 444 -144.34 444 -144 444 C-144 442.35 -144 440.7 -144 439 C-144.33 439 -144.66 439 -145 439 Z M-146 453 C-145 456 -145 456 -145 456 Z M-146 481 C-145 483 -145 483 -145 483 Z M-145 491 C-144 494 -144 494 -144 494 Z " fill="#FEFEFE" transform="translate(631,676)"/>
<path d="M0 0 C0.77859375 0.03351562 1.5571875 0.06703125 2.359375 0.1015625 C4.25 0.375 4.25 0.375 5.25 1.375 C7.37668402 1.61129822 9.50379547 1.84433165 11.6328125 2.05859375 C17.24736456 2.73736795 22.77420545 3.97667478 28.25 5.375 C28.848125 5.519375 29.44625 5.66375 30.0625 5.8125 C34.0526407 6.83853618 38.00216033 7.85760307 41.8125 9.4375 C44.25330685 10.47321498 44.25330685 10.47321498 47 10.8125 C55.25358323 12.24100479 62.73959755 15.78794211 70.25 19.375 C70.85263672 19.65472656 71.45527344 19.93445313 72.07617188 20.22265625 C98.92242544 32.71305821 120.06005825 51.60388407 131.25 79.375 C132.45321589 82.67552104 133.41207942 85.96498143 134.25 89.375 C134.51554688 90.37917969 134.78109375 91.38335937 135.0546875 92.41796875 C142.90194328 123.69488821 138.41638 159.12897786 132.25 190.375 C132.0545459 191.39384277 131.8590918 192.41268555 131.65771484 193.46240234 C123.23785237 236.93938881 109.19216049 279.18422452 95.03112793 321.06481934 C94.50998086 322.60610832 93.98922948 324.14753115 93.46887207 325.68908691 C87.63780516 342.96338321 81.69265723 360.16660244 75.203125 377.20703125 C73.21651372 382.43005133 71.34372555 387.68772817 69.50613403 392.9646759 C67.72808573 398.05375335 65.89149239 403.11910846 64.0234375 408.17578125 C63.56931488 409.40652878 63.56931488 409.40652878 63.10601807 410.66213989 C59.76618774 419.70223279 56.38697342 428.72748525 53 437.75 C52.51460754 439.0437706 52.51460754 439.0437706 52.01940918 440.36367798 C46.57063101 454.88580264 41.0869205 469.39428828 35.57373047 483.89208984 C34.18406979 487.54847112 32.79668397 491.20571117 31.41015625 494.86328125 C31.05574211 495.79810585 31.05574211 495.79810585 30.69416809 496.7518158 C29.52059051 499.8474029 28.34722597 502.94307059 27.17407227 506.03881836 C25.12203754 511.45108307 23.06620072 516.86174015 20.9921875 522.265625 C17.71738112 530.80392172 14.52886566 539.35324229 11.5378418 547.99511719 C9.30141267 554.38147353 6.76858597 560.63749704 4.22192383 566.90527344 C1.71117822 573.12143746 -0.59625206 579.38732746 -2.75976562 585.73242188 C-4.23858245 590.04744457 -5.9105974 594.20532784 -7.75 598.375 C-8.08 598.375 -8.41 598.375 -8.75 598.375 C-8.93092795 541.9108251 -9.1058865 485.44663375 -9.24772644 428.98234558 C-9.24982646 428.1470615 -9.25192649 427.31177743 -9.25409015 426.45118171 C-9.29968871 408.2995373 -9.34417299 390.14789032 -9.38750892 371.99624037 C-9.40876669 363.09506794 -9.43027078 354.19389613 -9.4519043 345.29272461 C-9.45405293 344.40693669 -9.45620157 343.52114877 -9.45841532 342.60851879 C-9.52821254 313.8818453 -9.61428386 285.1552485 -9.70876745 256.4286465 C-9.80575123 226.91582011 -9.88637099 197.4029934 -9.94631105 167.89006742 C-9.95477891 163.72448336 -9.96343444 159.55889971 -9.97220421 155.39331627 C-9.97392447 154.57344515 -9.97564474 153.75357403 -9.97741713 152.90885833 C-10.00562578 139.69499475 -10.05115689 126.48124453 -10.10311751 113.26745536 C-10.15494908 99.99292397 -10.18864651 86.71844568 -10.20367668 73.44382069 C-10.21316901 65.55072289 -10.23672143 57.65795434 -10.28014964 49.76496877 C-10.31099863 43.88051772 -10.31587771 37.99623594 -10.31042667 32.1116999 C-10.31232614 29.72398584 -10.32279982 27.33626096 -10.34246109 24.94862709 C-10.36786119 21.71572072 -10.36272355 18.48428523 -10.34962177 15.25133991 C-10.36436119 14.31309813 -10.3791006 13.37485636 -10.39428666 12.40818301 C-10.34266851 7.87323903 -10.2204677 5.98318012 -7.36389083 2.2904436 C-4.55409964 0.23144538 -3.41699869 -0.21786233 0 0 Z " fill="#FEFEFE" transform="translate(655.75,5.625)"/>
<path d="M0 0 C2.14105706 0.81485281 2.14105706 0.81485281 4.2109375 1.3828125 C26.88647203 7.9278923 46.94691709 27.5790527 58.30908203 47.80419922 C60.45379281 51.82159472 62.43486335 55.90667927 64.35351562 60.03613281 C65.05248797 61.52206579 65.79311701 62.98830071 66.54296875 64.44921875 C76.46239728 84.35248768 86.13241811 116.1944187 84.18359375 138.80078125 C82.18359375 141.80078125 82.18359375 141.80078125 80.37162703 142.17742543 C79.63071906 142.17820533 78.88981109 142.17898523 78.12645137 142.17978877 C76.84253477 142.19205171 76.84253477 142.19205171 75.53268045 142.2045624 C74.58495329 142.1982857 73.63722612 142.192009 72.66077995 142.18554211 C71.6555783 142.19069201 70.65037664 142.19584192 69.61471432 142.20114788 C66.20720429 142.21488949 62.80007242 142.20704801 59.39254761 142.19950867 C56.94068691 142.20494171 54.48882882 142.21169056 52.03697503 142.21965057 C46.68601222 142.23398304 41.33516047 142.23893286 35.98418808 142.23577309 C28.02744461 142.2311247 20.07079306 142.24357338 12.11406767 142.25960282 C-1.26870199 142.28607534 -14.65145094 142.29856675 -28.03424454 142.30316734 C-41.29026775 142.30776976 -54.54626217 142.31853886 -67.8022728 142.33759499 C-69.03730156 142.33936518 -69.03730156 142.33936518 -70.2972804 142.34117113 C-74.47844929 142.34719632 -78.65961801 142.35333217 -82.84078668 142.35951064 C-112.47767178 142.40310551 -142.1145562 142.43279675 -171.75146484 142.4543457 C-200.54835036 142.47531561 -229.34521873 142.50256199 -258.14208984 142.53833008 C-259.029296 142.53942956 -259.91650216 142.54052903 -260.83059336 142.54166183 C-269.74005382 142.55270989 -278.64951412 142.56388583 -287.5589743 142.57515545 C-305.70955253 142.5981113 -323.86013176 142.62021358 -342.01071167 142.64179993 C-342.84529751 142.64279355 -343.67988335 142.64378716 -344.53975967 142.64481089 C-400.2986279 142.71109694 -456.05751606 142.75742115 -511.81640625 142.80078125 C-509.83640625 141.81078125 -509.83640625 141.81078125 -507.81640625 140.80078125 C-507.81640625 140.14078125 -507.81640625 139.48078125 -507.81640625 138.80078125 C-506.71167969 138.39988281 -505.60695313 137.99898437 -504.46875 137.5859375 C-495.31124338 134.24585903 -486.1997669 130.80735461 -477.12890625 127.23828125 C-465.92338346 122.83014144 -454.66770994 118.58201408 -443.3656311 114.42816162 C-432.70873563 110.51008033 -422.07149897 106.5409248 -411.44140625 102.55078125 C-410.57158112 102.22452759 -409.70175598 101.89827393 -408.80557251 101.56213379 C-398.19572797 97.58246165 -387.59377679 93.58331897 -377.00390625 89.55078125 C-357.05561508 81.96177328 -337.04309914 74.54307328 -317.03564453 67.11181641 C-313.10087166 65.65022974 -309.1668654 64.18662248 -305.23388672 62.72021484 C-287.65890666 56.16819419 -270.0779517 49.74916519 -252.24609375 43.921875 C-246.76019903 42.12632448 -241.30968184 40.24104824 -235.86230469 38.33227539 C-207.18250574 28.29595382 -178.15100326 18.74514383 -148.81640625 10.80078125 C-147.27629883 10.3828833 -147.27629883 10.3828833 -145.70507812 9.95654297 C-44.38488373 -17.18387242 -44.38488373 -17.18387242 0 0 Z M-58.81640625 -5.19921875 C-58.81640625 -4.86921875 -58.81640625 -4.53921875 -58.81640625 -4.19921875 C-54.85640625 -4.19921875 -50.89640625 -4.19921875 -46.81640625 -4.19921875 C-46.81640625 -4.52921875 -46.81640625 -4.85921875 -46.81640625 -5.19921875 C-50.77640625 -5.19921875 -54.73640625 -5.19921875 -58.81640625 -5.19921875 Z M-38.81640625 -5.19921875 C-38.81640625 -4.86921875 -38.81640625 -4.53921875 -38.81640625 -4.19921875 C-35.51640625 -4.19921875 -32.21640625 -4.19921875 -28.81640625 -4.19921875 C-28.81640625 -4.52921875 -28.81640625 -4.85921875 -28.81640625 -5.19921875 C-32.11640625 -5.19921875 -35.41640625 -5.19921875 -38.81640625 -5.19921875 Z " fill="#FEFEFE" transform="translate(1187.81640625,488.19921875)"/>
<path d="M0 0 C0 0.66 0 1.32 0 2 C0.59505037 2.27014983 1.19010075 2.54029966 1.80318295 2.81863585 C3.98789905 3.99349257 5.40446127 5.1554021 7.14907277 6.90182644 C7.75098421 7.49949952 8.35289565 8.09717261 8.97304684 8.71295699 C9.6261661 9.37161613 10.27928537 10.03027527 10.95219612 10.70889378 C11.65519901 11.40988857 12.3582019 12.11088337 13.08250791 12.83312044 C15.45465635 15.20095204 17.81955631 17.57589524 20.18460083 19.95082092 C21.89386636 21.6599305 23.60357265 23.36859936 25.31368339 25.07686323 C29.03988837 28.80105931 32.76295512 32.5283518 36.48332596 36.25837326 C42.01550086 41.80485844 47.55339861 47.34560278 53.09252 52.88514964 C62.40988613 62.20353729 71.72265533 71.52650624 81.03290176 80.85200691 C90.25441711 90.08857198 99.47820863 99.32285483 108.70498276 108.55416679 C109.27836512 109.12783176 109.85174748 109.70149672 110.44250506 110.29254547 C113.35438835 113.20583326 116.26631785 116.11907486 119.17826866 119.03229516 C139.81323161 139.67635125 160.44393011 160.32466401 181.07177734 180.97583008 C182.3195832 182.22504351 183.56738915 183.47425684 184.81519519 184.72347008 C185.43345449 185.34242699 186.0517138 185.9613839 186.68870823 186.59909708 C189.81672078 189.73063852 192.94473565 192.86217764 196.07275391 195.99371338 C197.0031875 196.92519466 197.0031875 196.92519466 197.95241772 197.87549374 C212.36359107 212.30285094 226.77604927 226.72892431 241.18896484 241.15454102 C241.80641176 241.77253405 242.42385868 242.39052708 243.0600161 243.02724717 C257.14953971 257.12921033 271.23965669 271.23058025 285.33094597 285.33077908 C285.92273059 285.92293909 286.51451521 286.5150991 287.1242327 287.12520336 C292.44684272 292.45117937 297.76947658 297.77713157 303.09223674 303.10295754 C316.38186922 316.40024803 329.67000988 329.69902362 342.95452104 343.00143067 C352.2098266 352.26919452 361.46672396 361.53536551 370.7253436 370.79981858 C376.23216119 376.31023737 381.73752445 381.82210045 387.24089289 387.33596402 C391.34030376 391.44289712 395.44227829 395.54726266 399.54528211 399.65060645 C401.21228646 401.31858292 402.87842676 402.98742344 404.54365124 404.65717686 C406.79331492 406.9127279 409.04598488 409.16523143 411.29948616 411.41694736 C412.28618855 412.40844782 412.28618855 412.40844782 413.29282433 413.41997859 C413.88972874 414.01514815 414.48663314 414.61031772 415.10162556 415.22352272 C415.61702647 415.73952709 416.13242738 416.25553146 416.66344649 416.78717232 C418.00694288 418.11591682 418.00694288 418.11591682 420 419 C419.67 419.66 419.34 420.32 419 421 C418.4009082 420.72027344 417.80181641 420.44054687 417.18457031 420.15234375 C403.1838473 413.62671639 389.12549493 407.25033945 375 401 C362.19147429 395.33179558 349.44339 389.55342955 336.73828125 383.65625 C327.16260459 379.21351683 317.52276781 374.91377559 307.88476562 370.60839844 C281.31724431 358.73929222 254.84006091 346.67862317 228.4675293 334.38208008 C222.09068718 331.41450912 215.69162096 328.51142669 209.25 325.6875 C203.29366364 323.07080874 197.4545678 320.28765348 191.65356445 317.34375 C185.12387378 314.03669873 178.53409493 310.85864698 171.9375 307.6875 C170.18215942 306.84264038 170.18215942 306.84264038 168.39135742 305.98071289 C163.03882069 303.40788142 157.68227418 300.84480521 152.30859375 298.31640625 C-17.12217626 218.44298628 -17.12217626 218.44298628 -48 148 C-48.88438394 145.47636048 -49.64771141 142.9591763 -50.34765625 140.37890625 C-51.20120517 137.26626379 -52.27230208 134.24362211 -53.3515625 131.203125 C-59.6089462 109.94309844 -52.95358635 85.86065524 -45 66 C-44.73799805 65.32388672 -44.47599609 64.64777344 -44.20605469 63.95117188 C-36.85816349 45.20383159 -25.81505952 27.53007446 -14.3125 11.0625 C-13.84424805 10.38952881 -13.37599609 9.71655762 -12.89355469 9.02319336 C-6.39013921 0 -6.39013921 0 0 0 Z M-52 91 C-51 93 -51 93 -51 93 Z M-54 103 C-54 104.65 -54 106.3 -54 108 C-53.67 108 -53.34 108 -53 108 C-53 106.35 -53 104.7 -53 103 C-53.33 103 -53.66 103 -54 103 Z M-54 119 C-53 123 -53 123 -53 123 Z " fill="#FEFEFE" transform="translate(188,200)"/>
<path d="M0 0 C0.33 0 0.66 0 1 0 C1 192.06 1 384.12 1 582 C0.67 582 0.34 582 0 582 C0 389.94 0 197.88 0 0 Z " fill="#FEFEFE" transform="translate(645,14)"/>
<path d="M0 0 C0.33 0 0.66 0 1 0 C1 8.25 1 16.5 1 25 C0.67 25 0.34 25 0 25 C0 16.75 0 8.5 0 0 Z " fill="#FEFEFE" transform="translate(482,123)"/>
<path d="" fill="#FEFEFE" transform="translate(0,0)"/>
<path d="" fill="#FEFEFE" transform="translate(0,0)"/>
</svg>
